<?xml version="1.0" encoding="UTF-8"?>
<svg width="475px" height="90px" viewBox="0 0 475 90" version="1.1" xmlns="http://www.w3.org/2000/svg" xmlns:xlink="http://www.w3.org/1999/xlink">
    <title>European Medicines Agency</title>
    <defs>
        <path d="M0.762162162,11.2578947 C0.762162162,17.4315789 14.3540541,22.3947368 31.1216216,22.3947368 C33.027027,22.3947368 34.9324324,22.2736842 36.7108108,22.1526316 C40.3945946,18.5210526 43.3162162,14.0421053 45.0945946,9.07894737 C45.0945946,8.95789474 45.2216216,8.83684211 45.2216216,8.71578947 L45.2216216,8.59473684 C45.2216216,8.47368421 45.2216216,8.47368421 45.3486486,8.35263158 L45.3486486,8.23157895 C45.3486486,8.11052632 45.3486486,8.11052632 45.4756757,7.98947368 L45.4756757,7.86842105 C45.4756757,7.74736842 45.4756757,7.74736842 45.6027027,7.62631579 C45.6027027,7.50526316 45.7297297,7.38421053 45.7297297,7.26315789 L45.7297297,7.14210526 C45.7297297,7.02105263 45.7297297,6.9 45.8567568,6.9 L45.8567568,6.77894737 C45.8567568,6.65789474 45.8567568,6.53684211 45.9837838,6.41578947 C46.3648649,4.84210526 46.6189189,3.26842105 46.872973,1.69473684 C42.3,0.726315789 36.9648649,0.121052632 31.2486486,0.121052632 C14.3540541,0.121052632 0.762162162,5.08421053 0.762162162,11.2578947" id="path-1"></path>
        <linearGradient x1="0.0759926702%" y1="49.9234545%" x2="99.8550503%" y2="49.9234545%" id="linearGradient-3">
            <stop stop-color="#FFFFFF" offset="0%"></stop>
            <stop stop-color="#FFFFFF" offset="27.5%"></stop>
            <stop stop-color="#464747" offset="100%"></stop>
        </linearGradient>
        <linearGradient x1="-0.183207955%" y1="49.8071773%" x2="99.8469057%" y2="49.8071773%" id="linearGradient-4">
            <stop stop-color="#464747" offset="0%"></stop>
            <stop stop-color="#464747" offset="3.8%"></stop>
            <stop stop-color="#B3B0AF" offset="95.6%"></stop>
            <stop stop-color="#B3B0AF" offset="100%"></stop>
        </linearGradient>
        <linearGradient x1="-0.149117045%" y1="50.564753%" x2="99.8809966%" y2="50.564753%" id="linearGradient-5">
            <stop stop-color="#C8C5C4" offset="0%"></stop>
            <stop stop-color="#C8C5C4" offset="33%"></stop>
            <stop stop-color="#FFFFFF" offset="78%"></stop>
            <stop stop-color="#FFFFFF" offset="100%"></stop>
        </linearGradient>
        <radialGradient cx="76.8958092%" cy="17.2732727%" fx="76.8958092%" fy="17.2732727%" r="81.1261538%" id="radialGradient-6">
            <stop stop-color="#464747" offset="0%"></stop>
            <stop stop-color="#464747" offset="1.1%"></stop>
            <stop stop-color="#FFFFFF" offset="100%"></stop>
        </radialGradient>
    </defs>
    <g id="Page-1" stroke="none" stroke-width="1" fill="none" fill-rule="evenodd">
        <path d="M97.9046975,68.4758364 C98.6189591,68.4758364 99.3332207,68.3567928 99.9284387,67.8806185 C100.880787,67.2854005 100.999831,66.2140081 100.999831,65.7378337 C100.999831,64.6664414 100.6427,63.8331362 99.0951335,62.6427002 L98.7380027,62.404613 C97.5475667,61.3332207 97.190436,60.9760899 97.190436,60.1427847 C97.190436,59.190436 97.9046975,58.595218 98.8570463,58.595218 C100.047482,58.595218 100.404613,59.190436 100.523657,59.3094796 C100.6427,59.4285231 100.6427,59.7856539 100.6427,60.0237411 C100.6427,60.1427847 100.6427,60.1427847 100.761744,60.1427847 C100.880787,60.1427847 100.880787,60.0237411 100.880787,59.7856539 L100.880787,58.3571308 C100.880787,58.2380872 100.880787,58.2380872 100.761744,58.2380872 C100.6427,58.2380872 100.523657,58.2380872 100.285569,58.1190436 C99.9284387,58 99.5713079,58 99.0951335,58 C97.4285231,58 96.3571308,58.9523488 96.3571308,60.3808719 C96.3571308,61.3332207 96.7142616,62.0474823 98.0237411,63.2379182 L98.6189591,63.7140926 C99.8093951,64.6664414 100.166526,65.1426157 100.166526,66.0949645 C100.166526,66.9282697 99.5713079,67.8806185 98.2618283,67.8806185 C97.4285231,67.8806185 96.4761744,67.5234877 96.3571308,66.5711389 L96.3571308,66.0949645 C96.3571308,65.9759209 96.3571308,65.9759209 96.2380872,65.9759209 C96.1190436,65.9759209 96.1190436,66.0949645 96.1190436,66.2140081 C96.1190436,66.4520953 96,66.9282697 96,67.6425313 C96,67.999662 96,67.999662 96.2380872,68.1187056 C96.7142616,68.4758364 97.3094796,68.4758364 97.9046975,68.4758364 Z M109.332714,68.4758364 C110.166019,68.4758364 111.118368,68.3567928 111.713586,68.1187056 C111.951673,67.999662 111.951673,67.999662 112.070716,67.7615749 C112.18976,67.2854005 112.308804,66.2140081 112.308804,66.0949645 C112.308804,65.9759209 112.308804,65.8568773 112.18976,65.8568773 C112.070716,65.8568773 112.070716,65.8568773 112.070716,66.0949645 C112.070716,66.3330517 111.832629,66.9282697 111.594542,67.1663569 C111.118368,67.7615749 110.285063,67.8806185 109.332714,67.8806185 C106.475667,67.8806185 104.57097,65.6187901 104.57097,63.1188746 C104.57097,61.8093951 104.809057,60.6189591 105.761406,59.6666103 C106.23758,59.190436 107.070885,58.7142616 108.737496,58.7142616 C109.927932,58.7142616 110.880281,59.0713924 111.356455,59.4285231 C111.713586,59.6666103 111.951673,60.2618283 111.951673,60.7380027 C111.951673,60.9760899 111.951673,60.9760899 112.070716,60.9760899 C112.18976,60.9760899 112.18976,60.8570463 112.18976,60.7380027 L112.18976,59.4285231 C112.18976,58.9523488 112.308804,58.8333052 112.308804,58.7142616 C112.308804,58.595218 112.308804,58.595218 112.18976,58.595218 C111.713586,58.595218 111.356455,58.4761744 110.880281,58.3571308 C110.285063,58.2380872 109.451757,58.2380872 108.975583,58.2380872 C106.951842,58.2380872 105.761406,58.8333052 104.928101,59.6666103 C103.737665,60.8570463 103.499578,62.404613 103.499578,63.2379182 C103.499578,64.4283542 103.856708,65.9759209 105.047144,67.1663569 C105.999493,67.999662 107.308973,68.4758364 109.332714,68.4758364 Z M116.832291,62.1665259 L116.832291,59.3094796 C116.832291,58.8333052 116.951335,58.595218 117.308466,58.595218 L117.665596,58.595218 L117.78464,58.4761744 C117.78464,58.3571308 117.665596,58.3571308 117.546553,58.3571308 L114.927594,58.3571308 C114.80855,58.3571308 114.689507,58.3571308 114.689507,58.4761744 L114.80855,58.595218 L115.165681,58.595218 C115.403768,58.7142616 115.641855,58.8333052 115.641855,59.3094796 L115.641855,64.4283542 C115.641855,65.7378337 115.641855,66.6901825 115.522812,67.2854005 C115.522812,67.6425313 115.403768,67.999662 115.165681,67.999662 L114.80855,67.999662 C114.689507,67.999662 114.689507,67.999662 114.689507,68.1187056 C114.689507,68.2377492 114.80855,68.2377492 114.927594,68.2377492 L117.903684,68.2377492 C118.022727,68.2377492 118.141771,68.2377492 118.141771,68.1187056 C118.141771,68.1187056 118.141771,67.999662 118.022727,67.999662 L117.427509,67.999662 C117.070379,67.999662 116.951335,67.6425313 116.951335,67.2854005 C116.832291,66.6901825 116.832291,65.7378337 116.832291,64.4283542 L116.832291,62.1665259 Z M120.831953,64.390267 C120.831953,65.6997465 120.831953,66.6520953 120.71291,67.2473133 C120.71291,67.6044441 120.593866,67.9615749 120.355779,67.9615749 L119.998648,67.9615749 C119.879605,67.9615749 119.879605,67.9615749 119.879605,68.0806185 C119.879605,68.199662 119.998648,68.199662 120.117692,68.199662 L121.308128,68.199662 C121.665259,68.199662 122.617607,68.3187056 124.522305,68.3187056 C124.998479,68.3187056 125.117523,68.3187056 125.236566,67.9615749 C125.35561,67.7234877 125.35561,66.7711389 125.35561,66.6520953 C125.35561,66.5330517 125.35561,66.4140081 125.236566,66.4140081 C125.117523,66.4140081 125.117523,66.4140081 125.117523,66.6520953 C124.998479,67.2473133 124.879436,67.4854005 124.522305,67.6044441 C124.165174,67.7234877 123.569956,67.7234877 123.212825,67.7234877 C121.903346,67.7234877 121.784302,67.6044441 121.665259,66.6520953 L121.665259,63.199831 C121.665259,63.199831 121.665259,63.0807874 121.784302,63.0807874 C122.022389,63.0807874 123.331869,63.0807874 123.689,63.199831 C124.165174,63.199831 124.284218,63.4379182 124.403261,63.6760054 L124.403261,64.1521798 C124.403261,64.2712234 124.403261,64.2712234 124.522305,64.2712234 C124.641348,64.2712234 124.641348,64.1521798 124.641348,64.0331362 L124.641348,63.199831 C124.641348,62.7236566 124.760392,62.4855694 124.760392,62.4855694 C124.760392,62.3665259 124.760392,62.3665259 124.641348,62.3665259 C124.641348,62.3665259 124.522305,62.4855694 124.403261,62.4855694 C124.284218,62.604613 124.04613,62.604613 123.808043,62.7236566 L121.665259,62.7236566 C121.546215,62.7236566 121.546215,62.7236566 121.546215,62.604613 L121.546215,58.9142616 C121.546215,58.795218 121.546215,58.795218 121.665259,58.795218 L123.450912,58.795218 C124.165174,58.9142616 124.284218,59.0333052 124.403261,59.2713924 C124.522305,59.390436 124.522305,59.6285231 124.522305,59.7475667 C124.522305,59.8666103 124.522305,59.8666103 124.641348,59.8666103 L124.760392,59.7475667 C124.760392,59.6285231 124.760392,59.0333052 124.879436,58.9142616 C124.879436,58.5571308 124.998479,58.4380872 124.998479,58.3190436 L124.998479,58.2 C124.879436,58.2 124.879436,58.2 124.760392,58.3190436 C124.641348,58.3190436 124.403261,58.3190436 124.165174,58.4380872 L119.760561,58.4380872 C119.641517,58.4380872 119.522474,58.4380872 119.522474,58.5571308 L119.641517,58.6761744 L120.117692,58.6761744 C120.593866,58.795218 120.71291,59.0333052 120.71291,59.390436 L120.71291,62.2474823 L120.831953,64.390267 Z M129.28388,60.2618283 C129.760054,60.7380027 131.188577,62.404613 132.736144,64.0712234 C134.164667,65.6187901 136.069365,67.5234877 136.188408,67.6425313 C136.90267,68.3567928 137.021713,68.4758364 137.140757,68.4758364 C137.259801,68.4758364 137.259801,68.3567928 137.259801,67.5234877 L137.259801,59.7856539 C137.259801,58.9523488 137.259801,58.7142616 137.735975,58.595218 L138.093106,58.595218 C138.212149,58.595218 138.212149,58.595218 138.212149,58.4761744 C138.212149,58.3571308 138.093106,58.3571308 137.974062,58.3571308 L135.59319,58.3571308 C135.474147,58.3571308 135.355103,58.3571308 135.355103,58.4761744 C135.355103,58.4761744 135.355103,58.595218 135.474147,58.595218 C135.59319,58.595218 135.831277,58.595218 136.069365,58.7142616 C136.426495,58.8333052 136.545539,59.0713924 136.545539,60.0237411 L136.664583,66.6901825 C136.188408,66.2140081 134.759885,64.6664414 133.450406,63.2379182 C131.426664,61.0951335 129.521967,58.9523488 129.28388,58.7142616 C129.164836,58.595218 128.926749,58.2380872 128.807705,58.2380872 C128.688662,58.2380872 128.688662,58.3571308 128.688662,58.9523488 L128.688662,66.4520953 C128.688662,67.6425313 128.569618,67.999662 128.331531,68.1187056 C128.093444,68.2377492 127.855357,68.2377492 127.736313,68.2377492 C127.617269,68.2377492 127.617269,68.2377492 127.617269,68.3567928 C127.617269,68.4758364 127.736313,68.4758364 127.855357,68.4758364 L130.593359,68.4758364 C130.712403,68.4758364 130.831446,68.4758364 130.831446,68.3567928 C130.831446,68.3567928 130.831446,68.2377492 130.712403,68.2377492 C130.593359,68.2377492 130.355272,68.2377492 129.998141,68.1187056 C129.64101,67.999662 129.521967,67.6425313 129.521967,66.5711389 L129.28388,60.2618283 Z M145.306945,68.4758364 C146.14025,68.4758364 147.092599,68.3567928 147.687817,68.1187056 C147.925904,67.999662 147.925904,67.999662 148.044948,67.7615749 C148.163991,67.2854005 148.283035,66.2140081 148.283035,66.0949645 C148.283035,65.9759209 148.283035,65.8568773 148.163991,65.8568773 C148.044948,65.8568773 148.044948,65.8568773 148.044948,66.0949645 C148.044948,66.3330517 147.80686,66.9282697 147.568773,67.1663569 C147.092599,67.7615749 146.259294,67.8806185 145.306945,67.8806185 C142.449899,67.8806185 140.545201,65.6187901 140.545201,63.1188746 C140.545201,61.8093951 140.783288,60.6189591 141.735637,59.6666103 C142.211811,59.190436 143.045117,58.7142616 144.711727,58.7142616 C145.902163,58.7142616 146.854512,59.0713924 147.330686,59.4285231 C147.687817,59.6666103 147.925904,60.2618283 147.925904,60.7380027 C147.925904,60.9760899 147.925904,60.9760899 148.044948,60.9760899 C148.163991,60.9760899 148.163991,60.8570463 148.163991,60.7380027 L148.163991,59.4285231 C148.163991,58.9523488 148.283035,58.8333052 148.283035,58.7142616 C148.283035,58.595218 148.283035,58.595218 148.163991,58.595218 C147.687817,58.595218 147.330686,58.4761744 146.854512,58.3571308 C146.259294,58.2380872 145.425989,58.2380872 144.949814,58.2380872 C142.926073,58.2380872 141.735637,58.8333052 140.902332,59.6666103 C139.711896,60.8570463 139.473809,62.404613 139.473809,63.2379182 C139.473809,64.4283542 139.83094,65.9759209 141.021375,67.1663569 C141.973724,67.999662 143.283204,68.4758364 145.306945,68.4758364 Z M150.73513,64.390267 C150.73513,65.6997465 150.73513,66.6520953 150.616087,67.2473133 C150.616087,67.6044441 150.497043,67.9615749 150.258956,67.9615749 L149.901825,67.9615749 C149.782781,67.9615749 149.782781,67.9615749 149.782781,68.0806185 C149.782781,68.199662 149.901825,68.199662 150.020869,68.199662 L151.211304,68.199662 C151.568435,68.199662 152.520784,68.3187056 154.425482,68.3187056 C154.901656,68.3187056 155.0207,68.3187056 155.139743,67.9615749 C155.258787,67.7234877 155.258787,66.7711389 155.258787,66.6520953 C155.258787,66.5330517 155.258787,66.4140081 155.139743,66.4140081 C155.0207,66.4140081 155.0207,66.4140081 155.0207,66.6520953 C154.901656,67.2473133 154.782612,67.4854005 154.425482,67.6044441 C154.068351,67.7234877 153.473133,67.7234877 153.116002,67.7234877 C151.806522,67.7234877 151.687479,67.6044441 151.568435,66.6520953 L151.568435,63.199831 C151.568435,63.199831 151.568435,63.0807874 151.687479,63.0807874 C151.925566,63.0807874 153.235046,63.0807874 153.592176,63.199831 C154.068351,63.199831 154.187394,63.4379182 154.306438,63.6760054 L154.306438,64.1521798 C154.306438,64.2712234 154.306438,64.2712234 154.425482,64.2712234 C154.544525,64.2712234 154.544525,64.1521798 154.544525,64.0331362 L154.544525,63.199831 C154.544525,62.7236566 154.663569,62.4855694 154.663569,62.4855694 C154.663569,62.4855694 154.663569,62.3665259 154.544525,62.3665259 C154.544525,62.3665259 154.425482,62.4855694 154.306438,62.4855694 C154.187394,62.604613 153.949307,62.604613 153.71122,62.7236566 L151.568435,62.7236566 C151.449392,62.7236566 151.449392,62.7236566 151.449392,62.604613 L151.449392,58.9142616 C151.449392,58.795218 151.449392,58.795218 151.568435,58.795218 L153.354089,58.795218 C154.068351,58.9142616 154.187394,59.0333052 154.306438,59.2713924 C154.425482,59.390436 154.425482,59.6285231 154.425482,59.7475667 C154.425482,59.8666103 154.425482,59.8666103 154.544525,59.8666103 L154.663569,59.7475667 C154.663569,59.6285231 154.663569,59.0333052 154.782612,58.9142616 C154.782612,58.5571308 154.901656,58.4380872 154.901656,58.3190436 L154.901656,58.2 C154.782612,58.2 154.782612,58.2 154.663569,58.3190436 C154.544525,58.3190436 154.306438,58.3190436 154.068351,58.4380872 L149.663738,58.4380872 C149.544694,58.4380872 149.425651,58.4380872 149.425651,58.5571308 L149.544694,58.6761744 L150.020869,58.6761744 C150.497043,58.795218 150.616087,59.0333052 150.616087,59.390436 L150.616087,62.2474823 L150.73513,64.390267 Z M177.043258,58.595218 C177.043258,58.3571308 176.924214,58.2380872 176.924214,58.2380872 C176.805171,58.2380872 176.805171,58.3571308 176.686127,58.4761744 L172.876732,66.6901825 L168.82925,58.3571308 C168.710206,58.2380872 168.710206,58.1190436 168.591163,58.1190436 C168.472119,58.1190436 168.472119,58.2380872 168.472119,58.3571308 L167.51977,66.9282697 C167.51977,67.4044441 167.400727,67.999662 167.043596,67.999662 L166.686465,67.999662 C166.567421,67.999662 166.567421,67.999662 166.567421,68.1187056 C166.567421,68.2377492 166.686465,68.2377492 166.805509,68.2377492 L169.067337,68.2377492 C169.186381,68.2377492 169.305424,68.2377492 169.305424,68.1187056 L169.186381,67.999662 C169.067337,67.999662 168.948293,67.999662 168.710206,67.8806185 C168.472119,67.8806185 168.353075,67.6425313 168.353075,67.5234877 L168.353075,66.8092261 L168.82925,60.7380027 C168.948293,61.0951335 170.49586,64.3093106 170.614904,64.5473978 C170.733947,64.6664414 171.80534,66.9282697 172.16247,67.6425313 C172.400558,68.1187056 172.519601,68.2377492 172.519601,68.2377492 C172.638645,68.2377492 172.638645,68.1187056 172.995776,67.5234877 L176.209953,60.7380027 L176.805171,67.5234877 L176.805171,67.999662 C176.686127,67.999662 176.686127,67.999662 176.686127,68.1187056 C176.686127,68.2377492 176.805171,68.2377492 177.043258,68.2377492 C177.519432,68.2377492 178.947955,68.3567928 179.186043,68.3567928 C179.305086,68.3567928 179.42413,68.3567928 179.42413,68.2377492 C179.42413,68.2377492 179.42413,68.1187056 179.305086,68.1187056 C179.186043,68.1187056 178.828912,68.1187056 178.471781,67.999662 C177.876563,67.7615749 177.757519,67.0473133 177.757519,66.5711389 L177.043258,58.595218 Z M182.161964,64.390267 C182.161964,65.6997465 182.161964,66.6520953 182.04292,67.2473133 C182.04292,67.6044441 181.923876,67.9615749 181.685789,67.9615749 L181.328658,67.9615749 C181.209615,67.9615749 181.209615,67.9615749 181.209615,68.0806185 C181.209615,68.199662 181.328658,68.199662 181.447702,68.199662 L182.638138,68.199662 C182.995269,68.199662 183.947617,68.3187056 185.852315,68.3187056 C186.328489,68.3187056 186.447533,68.3187056 186.566577,67.9615749 C186.68562,67.7234877 186.68562,66.7711389 186.68562,66.6520953 C186.68562,66.5330517 186.68562,66.4140081 186.566577,66.4140081 C186.447533,66.4140081 186.447533,66.4140081 186.447533,66.6520953 C186.328489,67.2473133 186.209446,67.4854005 185.852315,67.6044441 C185.495184,67.7234877 184.899966,67.7234877 184.542835,67.7234877 C183.233356,67.7234877 183.114312,67.6044441 182.995269,66.6520953 L182.995269,63.199831 C182.995269,63.199831 182.995269,63.0807874 183.114312,63.0807874 C183.352399,63.0807874 184.661879,63.0807874 185.01901,63.199831 C185.495184,63.199831 185.614228,63.4379182 185.733271,63.6760054 L185.733271,64.1521798 C185.733271,64.2712234 185.733271,64.2712234 185.852315,64.2712234 C185.971359,64.2712234 185.971359,64.1521798 185.971359,64.0331362 L185.971359,63.199831 C185.971359,62.7236566 186.090402,62.4855694 186.090402,62.4855694 C186.090402,62.4855694 186.090402,62.3665259 185.971359,62.3665259 C185.971359,62.3665259 185.852315,62.4855694 185.733271,62.4855694 C185.614228,62.604613 185.376141,62.604613 185.138053,62.7236566 L182.995269,62.7236566 C182.876225,62.7236566 182.876225,62.7236566 182.876225,62.604613 L182.876225,58.9142616 C182.876225,58.795218 182.876225,58.795218 182.995269,58.795218 L184.780923,58.795218 C185.495184,58.9142616 185.614228,59.0333052 185.733271,59.2713924 C185.852315,59.390436 185.852315,59.6285231 185.852315,59.7475667 C185.852315,59.8666103 185.852315,59.8666103 185.971359,59.8666103 L186.090402,59.7475667 C186.090402,59.6285231 186.090402,59.0333052 186.209446,58.9142616 C186.209446,58.5571308 186.328489,58.4380872 186.328489,58.3190436 L186.328489,58.2 C186.209446,58.2 186.209446,58.2 186.090402,58.3190436 C185.971359,58.3190436 185.733271,58.3190436 185.495184,58.4380872 L181.090571,58.4380872 C180.971528,58.4380872 180.852484,58.4380872 180.852484,58.5571308 L180.971528,58.6761744 L181.447702,58.6761744 C181.923876,58.795218 182.04292,59.0333052 182.04292,59.390436 L182.04292,62.2474823 L182.161964,64.390267 Z M189.494846,64.5473978 C189.494846,65.8568773 189.494846,66.8092261 189.375803,67.4044441 C189.375803,67.7615749 189.256759,68.1187056 189.018672,68.1187056 L188.661541,68.1187056 C188.542497,68.1187056 188.542497,68.1187056 188.542497,68.2377492 C188.542497,68.3567928 188.661541,68.3567928 188.780585,68.3567928 L190.090064,68.3567928 C190.209108,68.3567928 191.875718,68.4758364 193.066154,68.4758364 C195.327982,68.4758364 196.518418,67.5234877 196.994593,66.9282697 C197.708854,66.0949645 198.423116,64.9045286 198.423116,63.2379182 C198.423116,61.6903515 197.827898,60.6189591 197.113636,59.9046975 C195.56607,58.2380872 193.185198,58.3571308 191.875718,58.3571308 L188.661541,58.3571308 C188.542497,58.3571308 188.423454,58.3571308 188.423454,58.4761744 L188.542497,58.595218 L189.018672,58.595218 C189.494846,58.7142616 189.61389,58.9523488 189.61389,59.3094796 L189.61389,62.1665259 L189.494846,64.5473978 Z M190.566239,62.0474823 L190.566239,59.190436 C190.566239,59.0713924 190.566239,58.9523488 190.685282,58.9523488 C190.804326,58.9523488 191.2805,58.8333052 191.518587,58.8333052 C193.066154,58.8333052 194.613721,59.0713924 195.804157,60.2618283 C196.399375,60.8570463 197.113636,61.9284387 197.113636,63.595049 C197.113636,64.785485 196.756506,66.0949645 196.042244,66.6901825 C195.208939,67.5234877 194.137546,67.8806185 192.947111,67.8806185 C191.399544,67.8806185 190.923369,67.6425313 190.685282,67.4044441 C190.566239,67.2854005 190.566239,66.6901825 190.566239,66.4520953 L190.566239,62.0474823 Z M201.82756,62.1665259 L201.82756,59.3094796 C201.82756,58.8333052 201.946604,58.595218 202.303734,58.595218 L202.660865,58.595218 L202.779909,58.4761744 C202.779909,58.3571308 202.660865,58.3571308 202.541822,58.3571308 L199.922862,58.3571308 C199.803819,58.3571308 199.684775,58.3571308 199.684775,58.4761744 L199.803819,58.595218 L200.16095,58.595218 C200.399037,58.7142616 200.637124,58.8333052 200.637124,59.3094796 L200.637124,64.4283542 C200.637124,65.7378337 200.637124,66.6901825 200.51808,67.2854005 C200.51808,67.6425313 200.399037,67.999662 200.16095,67.999662 L199.803819,67.999662 C199.684775,67.999662 199.684775,67.999662 199.684775,68.1187056 C199.684775,68.2377492 199.803819,68.2377492 199.922862,68.2377492 L202.898952,68.2377492 C203.017996,68.2377492 203.13704,68.2377492 203.13704,68.1187056 C203.13704,68.1187056 203.13704,67.999662 203.017996,67.999662 L202.422778,67.999662 C202.065647,67.999662 201.946604,67.6425313 201.946604,67.2854005 C201.82756,66.6901825 201.82756,65.7378337 201.82756,64.4283542 L201.82756,62.1665259 Z M210.993748,68.4758364 C211.827053,68.4758364 212.779402,68.3567928 213.37462,68.1187056 C213.612707,67.999662 213.612707,67.999662 213.731751,67.7615749 C213.850794,67.2854005 213.969838,66.2140081 213.969838,66.0949645 C213.969838,65.9759209 213.969838,65.8568773 213.850794,65.8568773 C213.731751,65.8568773 213.731751,65.8568773 213.731751,66.0949645 C213.731751,66.3330517 213.493663,66.9282697 213.255576,67.1663569 C212.779402,67.7615749 211.946097,67.8806185 210.993748,67.8806185 C208.136702,67.8806185 206.232004,65.6187901 206.232004,63.1188746 C206.232004,61.8093951 206.470091,60.6189591 207.42244,59.6666103 C207.898614,59.190436 208.73192,58.7142616 210.39853,58.7142616 C211.588966,58.7142616 212.541315,59.0713924 213.017489,59.4285231 C213.37462,59.6666103 213.612707,60.2618283 213.612707,60.7380027 C213.612707,60.9760899 213.612707,60.9760899 213.731751,60.9760899 C213.850794,60.9760899 213.850794,60.8570463 213.850794,60.7380027 L213.850794,59.4285231 C213.850794,58.9523488 213.969838,58.8333052 213.969838,58.7142616 C213.969838,58.595218 213.969838,58.595218 213.850794,58.595218 C213.37462,58.595218 213.017489,58.4761744 212.541315,58.3571308 C211.946097,58.2380872 211.112791,58.2380872 210.636617,58.2380872 C208.612876,58.2380872 207.42244,58.8333052 206.589135,59.6666103 C205.398699,60.8570463 205.160612,62.404613 205.160612,63.2379182 C205.160612,64.4283542 205.517742,65.9759209 206.708178,67.1663569 C207.660527,67.999662 209.08905,68.4758364 210.993748,68.4758364 Z M217.612369,62.1665259 L217.612369,59.3094796 C217.612369,58.8333052 217.731413,58.595218 218.088543,58.595218 L218.445674,58.595218 L218.564718,58.4761744 C218.564718,58.3571308 218.445674,58.3571308 218.326631,58.3571308 L215.707672,58.3571308 C215.588628,58.3571308 215.469584,58.3571308 215.469584,58.4761744 L215.588628,58.595218 L215.945759,58.595218 C216.183846,58.7142616 216.421933,58.8333052 216.421933,59.3094796 L216.421933,64.4283542 C216.421933,65.7378337 216.421933,66.6901825 216.302889,67.2854005 C216.302889,67.6425313 216.183846,67.999662 215.945759,67.999662 L215.588628,67.999662 C215.469584,67.999662 215.469584,67.999662 215.469584,68.1187056 C215.469584,68.2377492 215.588628,68.2377492 215.707672,68.2377492 L218.683761,68.2377492 C218.802805,68.2377492 218.921849,68.2377492 218.921849,68.1187056 C218.921849,68.1187056 218.921849,67.999662 218.802805,67.999662 L218.207587,67.999662 C217.850456,67.999662 217.731413,67.6425313 217.731413,67.2854005 C217.612369,66.6901825 217.612369,65.7378337 217.612369,64.4283542 L217.612369,62.1665259 Z M221.731075,60.2618283 C222.207249,60.7380027 223.635772,62.404613 225.183339,64.0712234 C226.611862,65.6187901 228.51656,67.5234877 228.635603,67.6425313 C229.349865,68.3567928 229.468908,68.4758364 229.587952,68.4758364 C229.706996,68.4758364 229.706996,68.3567928 229.706996,67.5234877 L229.706996,59.7856539 C229.706996,58.9523488 229.706996,58.7142616 230.18317,58.595218 L230.540301,58.595218 C230.659344,58.595218 230.659344,58.595218 230.659344,58.4761744 C230.659344,58.3571308 230.540301,58.3571308 230.421257,58.3571308 L228.040385,58.3571308 C227.921342,58.3571308 227.802298,58.3571308 227.802298,58.4761744 C227.802298,58.4761744 227.802298,58.595218 227.921342,58.595218 C228.040385,58.595218 228.278472,58.595218 228.51656,58.7142616 C228.87369,58.8333052 228.992734,59.0713924 228.992734,60.0237411 L229.111778,66.6901825 C228.635603,66.2140081 227.20708,64.6664414 225.897601,63.2379182 C223.873859,61.0951335 221.850118,58.9523488 221.731075,58.7142616 C221.612031,58.595218 221.373944,58.2380872 221.2549,58.2380872 C221.135857,58.2380872 221.135857,58.3571308 221.135857,58.9523488 L221.135857,66.4520953 C221.135857,67.6425313 221.016813,67.999662 220.778726,68.1187056 C220.540639,68.2377492 220.302552,68.2377492 220.183508,68.2377492 C220.064464,68.2377492 220.064464,68.2377492 220.064464,68.3567928 C220.064464,68.4758364 220.183508,68.4758364 220.302552,68.4758364 L223.040554,68.4758364 C223.159598,68.4758364 223.278641,68.4758364 223.278641,68.3567928 C223.278641,68.3567928 223.278641,68.2377492 223.159598,68.2377492 C223.040554,68.2377492 222.802467,68.2377492 222.445336,68.1187056 C222.088205,67.999662 221.969162,67.6425313 221.969162,66.5711389 L221.731075,60.2618283 Z M233.230483,64.390267 C233.230483,65.6997465 233.230483,66.6520953 233.11144,67.2473133 C233.11144,67.6044441 232.992396,67.9615749 232.754309,67.9615749 L232.397178,67.9615749 C232.278135,67.9615749 232.278135,67.9615749 232.278135,68.0806185 C232.278135,68.199662 232.397178,68.199662 232.516222,68.199662 L233.706658,68.199662 C234.063788,68.199662 235.016137,68.3187056 236.920835,68.3187056 C237.397009,68.3187056 237.516053,68.3187056 237.635096,67.9615749 C237.75414,67.7234877 237.75414,66.7711389 237.75414,66.6520953 C237.75414,66.5330517 237.75414,66.4140081 237.635096,66.4140081 C237.516053,66.4140081 237.516053,66.4140081 237.516053,66.6520953 C237.397009,67.2473133 237.277966,67.4854005 236.920835,67.6044441 C236.563704,67.7234877 235.968486,67.7234877 235.611355,67.7234877 C234.301876,67.7234877 234.182832,67.6044441 234.063788,66.6520953 L234.063788,63.199831 C234.063788,63.199831 234.063788,63.0807874 234.182832,63.0807874 C234.420919,63.0807874 235.730399,63.0807874 236.08753,63.199831 C236.563704,63.199831 236.682748,63.4379182 236.801791,63.6760054 L236.801791,64.1521798 C236.801791,64.2712234 236.801791,64.2712234 236.920835,64.2712234 C237.039878,64.2712234 237.039878,64.1521798 237.039878,64.0331362 L237.039878,63.199831 C237.039878,62.7236566 237.158922,62.4855694 237.158922,62.4855694 C237.158922,62.3665259 237.158922,62.3665259 237.039878,62.3665259 C237.039878,62.3665259 236.920835,62.4855694 236.801791,62.4855694 C236.682748,62.604613 236.44466,62.604613 236.206573,62.7236566 L234.063788,62.7236566 C233.944745,62.7236566 233.944745,62.7236566 233.944745,62.604613 L233.944745,58.9142616 C233.944745,58.795218 233.944745,58.795218 234.063788,58.795218 L235.849442,58.795218 C236.563704,58.9142616 236.682748,59.0333052 236.801791,59.2713924 C236.920835,59.390436 236.920835,59.6285231 236.920835,59.7475667 C236.920835,59.8666103 236.920835,59.8666103 237.039878,59.8666103 L237.158922,59.7475667 C237.158922,59.6285231 237.158922,59.0333052 237.277966,58.9142616 C237.277966,58.5571308 237.397009,58.4380872 237.397009,58.3190436 L237.397009,58.2 C237.277966,58.2 237.277966,58.2 237.158922,58.3190436 C237.039878,58.3190436 236.801791,58.3190436 236.563704,58.4380872 L232.159091,58.4380872 C232.040047,58.4380872 231.921004,58.4380872 231.921004,58.5571308 L232.040047,58.6761744 L232.516222,58.6761744 C232.992396,58.795218 233.11144,59.0333052 233.11144,59.390436 L233.11144,62.2474823 L233.230483,64.390267 Z M241.515715,68.4758364 C242.229976,68.4758364 242.944238,68.3567928 243.539456,67.8806185 C244.491805,67.2854005 244.610848,66.2140081 244.610848,65.7378337 C244.610848,64.6664414 244.253717,63.8331362 242.706151,62.6427002 L242.34902,62.404613 C241.158584,61.3332207 240.801453,60.9760899 240.801453,60.1427847 C240.801453,59.190436 241.515715,58.595218 242.468064,58.595218 C243.658499,58.595218 244.01563,59.190436 244.134674,59.3094796 C244.253717,59.4285231 244.253717,59.7856539 244.253717,60.0237411 C244.253717,60.1427847 244.253717,60.1427847 244.372761,60.1427847 C244.491805,60.1427847 244.491805,60.0237411 244.491805,59.7856539 L244.491805,58.3571308 C244.491805,58.2380872 244.491805,58.2380872 244.372761,58.2380872 C244.253717,58.2380872 244.134674,58.2380872 243.896587,58.1190436 C243.539456,58 243.182325,58 242.706151,58 C241.03954,58 239.968148,58.9523488 239.968148,60.3808719 C239.968148,61.3332207 240.325279,62.0474823 241.634758,63.2379182 L242.229976,63.7140926 C243.301369,64.6664414 243.777543,65.1426157 243.777543,66.0949645 C243.777543,66.9282697 243.182325,67.8806185 241.872846,67.8806185 C241.03954,67.8806185 240.087192,67.5234877 239.968148,66.5711389 L239.968148,66.0949645 C239.968148,65.9759209 239.968148,65.9759209 239.849104,65.9759209 C239.730061,65.9759209 239.730061,66.0949645 239.730061,66.2140081 C239.730061,66.4520953 239.611017,66.9282697 239.611017,67.6425313 C239.611017,67.999662 239.611017,67.999662 239.849104,68.1187056 C240.206235,68.4758364 240.801453,68.4758364 241.515715,68.4758364 Z M265.442971,62.1665259 L265.442971,59.3094796 C265.442971,58.8333052 265.562014,58.595218 265.919145,58.595218 L266.276276,58.595218 L266.395319,58.4761744 C266.395319,58.3571308 266.276276,58.3571308 266.157232,58.3571308 L263.419229,58.3571308 C263.300186,58.3571308 263.181142,58.3571308 263.181142,58.4761744 L263.300186,58.595218 L263.77636,58.595218 C264.252535,58.7142616 264.371578,58.9523488 264.371578,59.3094796 L264.371578,62.404613 C264.371578,62.5236566 264.371578,62.5236566 264.252535,62.5236566 L258.657486,62.5236566 C258.657486,62.5236566 258.538442,62.5236566 258.538442,62.404613 L258.538442,62.1665259 L258.538442,59.3094796 C258.538442,58.8333052 258.657486,58.595218 259.014616,58.595218 L259.371747,58.595218 L259.490791,58.4761744 C259.490791,58.3571308 259.371747,58.3571308 259.252704,58.3571308 L256.514701,58.3571308 C256.395657,58.3571308 256.276614,58.3571308 256.276614,58.4761744 L256.395657,58.595218 L256.871832,58.595218 C257.348006,58.7142616 257.46705,58.9523488 257.46705,59.3094796 L257.46705,64.4283542 C257.46705,65.7378337 257.46705,66.6901825 257.348006,67.2854005 C257.348006,67.6425313 257.228962,67.999662 256.990875,67.999662 L256.633745,67.999662 C256.514701,67.999662 256.514701,67.999662 256.514701,68.1187056 C256.514701,68.2377492 256.633745,68.2377492 256.752788,68.2377492 L259.728878,68.2377492 C259.847922,68.2377492 259.966965,68.2377492 259.966965,68.1187056 C259.966965,68.1187056 259.966965,67.999662 259.847922,67.999662 L259.252704,67.999662 C258.895573,67.999662 258.776529,67.6425313 258.776529,67.2854005 C258.657486,66.6901825 258.657486,65.7378337 258.657486,64.4283542 L258.657486,62.999831 C258.657486,62.8807874 258.657486,62.8807874 258.776529,62.8807874 L264.371578,62.8807874 L264.490622,62.999831 L264.490622,64.4283542 C264.490622,65.7378337 264.490622,66.6901825 264.371578,67.2854005 C264.371578,67.6425313 264.252535,67.999662 264.014447,67.999662 L263.657317,67.999662 C263.538273,67.999662 263.538273,67.999662 263.538273,68.1187056 C263.538273,68.2377492 263.657317,68.2377492 263.77636,68.2377492 L266.75245,68.2377492 C266.871494,68.2377492 266.990537,68.2377492 266.990537,68.1187056 C266.990537,68.1187056 266.990537,67.999662 266.871494,67.999662 L266.276276,67.999662 C265.919145,67.999662 265.800101,67.6425313 265.800101,67.2854005 C265.681058,66.6901825 265.681058,65.7378337 265.681058,64.4283542 L265.442971,62.1665259 Z M269.323589,64.5473978 C269.323589,65.8568773 269.323589,66.8092261 269.204545,67.4044441 C269.204545,67.7615749 269.085502,68.1187056 268.847415,68.1187056 L268.490284,68.1187056 C268.37124,68.1187056 268.37124,68.1187056 268.37124,68.2377492 C268.37124,68.3567928 268.490284,68.3567928 268.609327,68.3567928 L269.799763,68.3567928 C270.156894,68.3567928 271.109243,68.4758364 273.013941,68.4758364 C273.490115,68.4758364 273.609158,68.4758364 273.728202,68.1187056 C273.847246,67.8806185 273.847246,66.9282697 273.847246,66.8092261 C273.847246,66.6901825 273.847246,66.5711389 273.728202,66.5711389 C273.609158,66.5711389 273.609158,66.5711389 273.609158,66.8092261 C273.490115,67.4044441 273.371071,67.6425313 273.013941,67.7615749 C272.65681,67.8806185 272.061592,67.8806185 271.704461,67.8806185 C270.394981,67.8806185 270.275938,67.7615749 270.156894,66.8092261 L270.156894,63.3569618 C270.156894,63.3569618 270.156894,63.2379182 270.275938,63.2379182 C270.514025,63.2379182 271.823505,63.2379182 272.180635,63.3569618 C272.65681,63.3569618 272.775853,63.595049 272.894897,63.8331362 L272.894897,64.3093106 C272.894897,64.4283542 272.894897,64.4283542 273.013941,64.4283542 C273.132984,64.4283542 273.132984,64.3093106 273.132984,64.190267 L273.132984,63.3569618 C273.132984,62.8807874 273.252028,62.6427002 273.252028,62.6427002 C273.252028,62.6427002 273.252028,62.5236566 273.132984,62.5236566 C273.132984,62.5236566 273.013941,62.6427002 272.894897,62.6427002 C272.775853,62.7617438 272.537766,62.7617438 272.299679,62.8807874 L270.156894,62.8807874 C270.037851,62.8807874 270.037851,62.8807874 270.037851,62.7617438 L270.037851,59.0713924 C270.037851,58.9523488 270.037851,58.9523488 270.156894,58.9523488 L271.942548,58.9523488 C272.65681,59.0713924 272.775853,59.190436 272.894897,59.4285231 C273.013941,59.5475667 273.013941,59.7856539 273.013941,59.9046975 C273.013941,60.0237411 273.013941,60.0237411 273.132984,60.0237411 L273.252028,59.9046975 C273.252028,59.7856539 273.252028,59.190436 273.371071,59.0713924 C273.371071,58.7142616 273.490115,58.595218 273.490115,58.4761744 L273.490115,58.3571308 C273.371071,58.3571308 273.371071,58.3571308 273.252028,58.4761744 C273.132984,58.4761744 272.894897,58.4761744 272.65681,58.595218 L268.252197,58.595218 C268.133153,58.595218 268.014109,58.595218 268.014109,58.7142616 L268.133153,58.8333052 L268.609327,58.8333052 C269.085502,58.9523488 269.204545,59.190436 269.204545,59.5475667 L269.204545,62.404613 L269.323589,64.5473978 Z M276.585079,66.9282697 C276.346992,67.6425313 276.108905,68.1187056 275.513687,68.1187056 L275.156556,68.1187056 C275.037513,68.1187056 275.037513,68.1187056 275.037513,68.2377492 C275.037513,68.3567928 275.156556,68.3567928 275.2756,68.3567928 L277.775515,68.3567928 C277.894559,68.3567928 278.013603,68.3567928 278.013603,68.2377492 C278.013603,68.2377492 278.013603,68.1187056 277.894559,68.1187056 L277.775515,68.1187056 C277.537428,68.1187056 277.299341,67.999662 277.299341,67.7615749 C277.299341,67.5234877 277.418385,67.1663569 277.537428,66.9282697 L278.370733,64.5473978 C278.370733,64.4283542 278.489777,64.4283542 278.489777,64.4283542 L281.346823,64.4283542 C281.465867,64.4283542 281.465867,64.4283542 281.465867,64.5473978 L282.656303,67.7615749 C282.775346,67.999662 282.656303,68.1187056 282.537259,68.1187056 L282.418216,68.2377492 C282.418216,68.3567928 282.537259,68.3567928 282.775346,68.3567928 L284.799088,68.3567928 C284.918131,68.3567928 285.037175,68.3567928 285.037175,68.2377492 C285.037175,68.1187056 285.037175,68.1187056 284.918131,68.1187056 C284.799088,68.1187056 284.561,68.1187056 284.441957,67.999662 C284.20387,67.8806185 283.727695,67.7615749 283.251521,66.5711389 C282.418216,64.5473978 280.394474,59.190436 280.156387,58.595218 C280.037344,58.2380872 279.9183,58.1190436 279.9183,58.1190436 C279.799257,58.1190436 279.799257,58.2380872 279.680213,58.595218 L276.585079,66.9282697 Z M278.370733,63.9521798 L279.442126,60.2618283 C279.561169,60.0237411 279.561169,60.0237411 279.680213,60.2618283 L280.989692,63.8331362 L280.989692,63.9521798 L278.370733,63.9521798 Z M288.251183,62.1665259 L288.251183,59.3094796 C288.251183,58.8333052 288.370226,58.595218 288.727357,58.595218 L289.203532,58.595218 L289.322575,58.4761744 C289.322575,58.3571308 289.203532,58.3571308 289.084488,58.3571308 L286.227442,58.3571308 C286.108398,58.3571308 285.989355,58.3571308 285.989355,58.4761744 L286.108398,58.595218 L286.584572,58.595218 C287.060747,58.7142616 287.17979,58.9523488 287.17979,59.3094796 L287.17979,64.4283542 C287.17979,65.7378337 287.17979,66.6901825 287.060747,67.2854005 C287.060747,67.6425313 286.941703,67.999662 286.703616,67.999662 L286.346485,67.999662 C286.227442,67.999662 286.227442,67.999662 286.227442,68.1187056 C286.227442,68.2377492 286.346485,68.2377492 286.465529,68.2377492 L287.775008,68.2377492 C288.48927,68.2377492 289.441619,68.3567928 291.346316,68.3567928 C292.060578,68.3567928 292.060578,68.3567928 292.179621,67.999662 C292.298665,67.6425313 292.417709,66.8092261 292.417709,66.6901825 C292.417709,66.5711389 292.417709,66.4520953 292.298665,66.4520953 C292.179621,66.4520953 292.179621,66.5711389 292.179621,66.5711389 C292.179621,66.8092261 292.060578,67.1663569 291.822491,67.4044441 C291.46536,67.7615749 290.870142,67.7615749 290.274924,67.7615749 C289.203532,67.7615749 288.846401,67.6425313 288.727357,67.4044441 C288.48927,67.1663569 288.48927,66.3330517 288.48927,64.4283542 L288.251183,62.1665259 Z M297.179284,58.9523488 L298.845894,58.9523488 C300.155373,58.9523488 300.393461,59.3094796 300.512504,59.6666103 L300.512504,59.7856539 C300.512504,60.0237411 300.512504,60.0237411 300.631548,60.0237411 C300.631548,60.0237411 300.750591,60.0237411 300.750591,59.9046975 L300.750591,58.4761744 C300.750591,58.3571308 300.750591,58.3571308 300.631548,58.3571308 C300.631548,58.3571308 300.512504,58.3571308 300.274417,58.4761744 C300.03633,58.4761744 299.798243,58.595218 299.322068,58.595218 L294.441281,58.595218 C294.322237,58.595218 293.727019,58.595218 293.369888,58.4761744 C293.012758,58.4761744 292.893714,58.3571308 292.77467,58.3571308 C292.77467,58.3571308 292.655627,58.4761744 292.655627,58.595218 C292.655627,58.7142616 292.41754,59.7856539 292.41754,59.9046975 C292.41754,60.0237411 292.41754,60.0237411 292.536583,60.0237411 C292.536583,60.0237411 292.655627,60.0237411 292.655627,59.9046975 C292.655627,59.7856539 292.77467,59.6666103 292.893714,59.5475667 C293.131801,59.190436 293.369888,59.190436 294.203194,59.0713924 L296.107891,59.0713924 L296.107891,64.6664414 C296.107891,65.9759209 296.107891,66.9282697 295.988848,67.5234877 C295.988848,67.8806185 295.869804,68.2377492 295.631717,68.2377492 L295.274586,68.2377492 C295.155542,68.2377492 295.155542,68.2377492 295.155542,68.3567928 C295.155542,68.4758364 295.274586,68.4758364 295.39363,68.4758364 L298.369719,68.4758364 C298.488763,68.4758364 298.607807,68.4758364 298.607807,68.3567928 C298.607807,68.3567928 298.607807,68.2377492 298.488763,68.2377492 L297.893545,68.2377492 C297.536414,68.2377492 297.417371,67.8806185 297.417371,67.5234877 C297.298327,66.9282697 297.298327,65.9759209 297.298327,64.6664414 L297.179284,58.9523488 Z M311.702433,62.1665259 L311.702433,59.3094796 C311.702433,58.8333052 311.821477,58.595218 312.178608,58.595218 L312.535738,58.595218 L312.654782,58.4761744 C312.654782,58.3571308 312.535738,58.3571308 312.416695,58.3571308 L309.678692,58.3571308 C309.559649,58.3571308 309.440605,58.3571308 309.440605,58.4761744 L309.559649,58.595218 L310.035823,58.595218 C310.511997,58.7142616 310.631041,58.9523488 310.631041,59.3094796 L310.631041,62.404613 C310.631041,62.5236566 310.631041,62.5236566 310.511997,62.5236566 L304.916948,62.5236566 C304.916948,62.5236566 304.797905,62.5236566 304.797905,62.404613 L304.797905,62.1665259 L304.797905,59.3094796 C304.797905,58.8333052 304.916948,58.595218 305.274079,58.595218 L305.63121,58.595218 L305.750253,58.4761744 C305.750253,58.3571308 305.63121,58.3571308 305.512166,58.3571308 L302.774164,58.3571308 C302.65512,58.3571308 302.536076,58.3571308 302.536076,58.4761744 L302.65512,58.595218 L303.131294,58.595218 C303.607469,58.7142616 303.726512,58.9523488 303.726512,59.3094796 L303.726512,64.4283542 C303.726512,65.7378337 303.726512,66.6901825 303.607469,67.2854005 C303.607469,67.6425313 303.488425,67.999662 303.250338,67.999662 L302.893207,67.999662 C302.774164,67.999662 302.774164,67.999662 302.774164,68.1187056 C302.774164,68.2377492 302.893207,68.2377492 303.012251,68.2377492 L305.988341,68.2377492 C306.107384,68.2377492 306.226428,68.2377492 306.226428,68.1187056 C306.226428,68.1187056 306.226428,67.999662 306.107384,67.999662 L305.512166,67.999662 C305.155035,67.999662 305.035992,67.6425313 305.035992,67.2854005 C304.916948,66.6901825 304.916948,65.7378337 304.916948,64.4283542 L304.916948,62.999831 C304.916948,62.8807874 304.916948,62.8807874 305.035992,62.8807874 L310.631041,62.8807874 L310.750084,62.999831 L310.750084,64.4283542 C310.750084,65.7378337 310.750084,66.6901825 310.631041,67.2854005 C310.631041,67.6425313 310.511997,67.999662 310.27391,67.999662 L309.916779,67.999662 C309.797736,67.999662 309.797736,67.999662 309.797736,68.1187056 C309.797736,68.2377492 309.916779,68.2377492 310.035823,68.2377492 L313.011913,68.2377492 C313.130956,68.2377492 313.25,68.2377492 313.25,68.1187056 C313.25,68.1187056 313.25,67.999662 313.130956,67.999662 L312.535738,67.999662 C312.178608,67.999662 312.059564,67.6425313 312.059564,67.2854005 C311.94052,66.6901825 311.94052,65.7378337 311.94052,64.4283542 L311.702433,62.1665259 Z" id="SMH" stroke="#636466" stroke-width="0.3" fill="#636466" fill-rule="nonzero"></path>
        <path d="M97.9695637,42.9092661 C97.9695637,45.1250254 97.9695637,46.9714914 97.846466,47.9562732 C97.7233683,48.5717619 97.6002705,49.1872506 97.2309773,49.1872506 C96.9847819,49.1872506 96.7385864,49.3103483 96.4923909,49.3103483 C96.3692932,49.3103483 96.2461955,49.4334461 96.2461955,49.4334461 C96.2461955,49.5565438 96.3692932,49.6796415 96.6154887,49.6796415 C97.3540751,49.6796415 98.8312479,49.5565438 98.8312479,49.5565438 C99.692932,49.6796415 101.170105,49.8027393 104.739939,49.8027393 C105.601623,49.8027393 105.847819,49.8027393 105.970916,49.1872506 C106.094014,48.6948597 106.217112,47.0945891 106.217112,46.9714914 C106.217112,46.8483936 106.217112,46.6021982 106.094014,46.6021982 C105.970916,46.6021982 105.970916,46.7252959 105.847819,46.9714914 C105.724721,47.9562732 105.355428,48.4486642 104.863037,48.6948597 C104.247548,48.9410551 103.262766,48.9410551 102.647278,48.9410551 C100.431518,48.9410551 100.062225,48.6948597 99.9391275,47.0945891 L99.9391275,41.0628001 C99.9391275,40.9397024 99.9391275,40.9397024 100.062225,40.9397024 C100.431518,40.9397024 102.770375,40.9397024 103.385864,41.0628001 C104.247548,41.1858979 104.493744,41.5551911 104.616841,41.9244843 C104.739939,42.1706797 104.739939,42.4168752 104.739939,42.6630707 C104.739939,42.7861684 104.739939,42.9092661 104.863037,42.9092661 C104.986135,42.9092661 104.986135,42.6630707 104.986135,42.4168752 C104.986135,42.2937775 104.986135,41.4320933 105.109232,40.9397024 C105.23233,40.201116 105.355428,39.8318228 105.355428,39.5856273 C105.355428,39.4625296 105.355428,39.3394319 105.23233,39.3394319 C105.109232,39.3394319 104.986135,39.4625296 104.863037,39.5856273 C104.616841,39.8318228 104.370646,39.8318228 103.755157,39.9549205 L100.062225,39.9549205 C99.9391275,39.9549205 99.9391275,39.8318228 99.9391275,39.7087251 L99.9391275,33.3076429 C99.9391275,33.1845451 99.9391275,33.0614474 100.062225,33.0614474 C100.308421,33.0614474 102.893473,33.0614474 103.262766,33.1845451 C104.493744,33.3076429 104.739939,33.5538383 104.863037,33.9231316 C104.986135,34.169327 104.986135,34.5386202 104.986135,34.7848157 C104.986135,35.0310112 104.986135,35.0310112 105.23233,35.0310112 C105.355428,35.0310112 105.355428,34.9079134 105.355428,34.7848157 C105.355428,34.5386202 105.478526,33.4307406 105.478526,33.3076429 C105.601623,32.6921542 105.724721,32.322861 105.724721,32.1997633 C105.724721,32.0766655 105.724721,31.9535678 105.601623,31.9535678 C105.478526,31.9535678 105.355428,32.0766655 105.23233,32.0766655 C104.986135,32.0766655 104.616841,32.1997633 104.247548,32.1997633 L98.9543456,32.1997633 C98.8312479,32.1997633 97.3540751,32.0766655 96.3692932,32.0766655 C96.1230977,32.0766655 96,32.0766655 96,32.322861 C96,32.4459587 96.1230977,32.4459587 96.2461955,32.4459587 C96.4923909,32.4459587 96.8616841,32.4459587 96.9847819,32.5690565 C97.7233683,32.6921542 97.9695637,33.0614474 97.9695637,33.9231316 L97.9695637,42.9092661 Z M109.417653,42.2937775 C109.417653,45.740514 110.279337,47.3407846 111.387217,48.4486642 C112.987487,50.0489347 115.326344,50.0489347 116.188028,50.0489347 C117.542103,50.0489347 119.265472,49.8027393 120.98884,48.3255665 C122.835306,46.7252959 123.081502,43.894048 123.081502,41.4320933 L123.081502,38.9701387 L123.081502,33.9231316 C123.081502,33.0614474 123.327697,32.6921542 123.943186,32.5690565 C124.189381,32.4459587 124.312479,32.4459587 124.558674,32.4459587 C124.681772,32.4459587 124.80487,32.4459587 124.80487,32.322861 C124.80487,32.1997633 124.681772,32.0766655 124.435577,32.0766655 C123.69699,32.0766655 122.589111,32.1997633 122.466013,32.1997633 C122.342915,32.1997633 121.111938,32.0766655 120.004058,32.0766655 C119.757863,32.0766655 119.634765,32.0766655 119.634765,32.322861 C119.634765,32.4459587 119.757863,32.4459587 119.88096,32.4459587 C120.127156,32.4459587 120.496449,32.4459587 120.619547,32.5690565 C121.358133,32.6921542 121.604329,33.0614474 121.604329,33.9231316 L121.604329,41.9244843 C121.604329,44.2633412 121.358133,46.232905 120.250254,47.58698 C119.388569,48.5717619 118.034494,49.3103483 116.557322,49.3103483 C115.203247,49.3103483 114.218465,49.0641529 113.110585,48.079371 C112.125803,47.0945891 111.387217,45.740514 111.387217,42.2937775 L111.387217,39.0932364 L111.387217,34.0462293 C111.387217,33.1845451 111.633412,32.8152519 112.248901,32.6921542 C112.495096,32.6921542 112.618194,32.5690565 112.86439,32.5690565 C112.987487,32.5690565 113.110585,32.5690565 113.110585,32.4459587 C113.110585,32.322861 112.987487,32.1997633 112.741292,32.1997633 C112.002705,32.1997633 110.64863,32.322861 110.402435,32.322861 C110.156239,32.322861 108.802164,32.1997633 107.694285,32.1997633 C107.448089,32.1997633 107.324992,32.1997633 107.324992,32.4459587 C107.324992,32.5690565 107.448089,32.5690565 107.571187,32.5690565 C107.817382,32.5690565 108.186676,32.5690565 108.309773,32.6921542 C109.04836,32.8152519 109.294555,33.1845451 109.294555,34.0462293 L109.294555,39.0932364 L109.417653,42.2937775 Z M127.759215,42.9092661 C127.759215,45.1250254 127.759215,46.9714914 127.636118,47.9562732 C127.51302,48.5717619 127.389922,49.1872506 127.020629,49.1872506 C126.774434,49.1872506 126.528238,49.3103483 126.282043,49.3103483 C126.158945,49.3103483 126.035847,49.4334461 126.035847,49.4334461 C126.035847,49.5565438 126.158945,49.6796415 126.40514,49.6796415 C127.143727,49.6796415 128.6209,49.5565438 128.6209,49.5565438 C128.743997,49.5565438 130.22117,49.6796415 131.452147,49.6796415 C131.698343,49.6796415 131.821441,49.5565438 131.821441,49.4334461 C131.821441,49.3103483 131.821441,49.3103483 131.575245,49.3103483 C131.32905,49.3103483 130.836659,49.3103483 130.590463,49.1872506 C129.851877,49.0641529 129.728779,48.5717619 129.728779,47.9562732 C129.605681,46.9714914 129.605681,45.1250254 129.605681,42.9092661 L129.605681,42.4168752 C129.605681,42.2937775 129.605681,42.1706797 129.728779,42.1706797 L132.560027,42.1706797 C132.683125,42.1706797 132.806223,42.1706797 132.806223,42.2937775 C133.298613,42.9092661 134.406493,44.5095367 135.391275,45.740514 C136.74535,47.4638823 137.483936,48.5717619 138.468718,49.1872506 C139.084207,49.5565438 139.699696,49.6796415 140.930673,49.6796415 L142.530944,49.6796415 C142.900237,49.6796415 143.146432,49.6796415 143.146432,49.4334461 C143.146432,49.3103483 143.023334,49.3103483 142.900237,49.3103483 C142.777139,49.3103483 142.407846,49.3103483 142.038553,49.1872506 C141.423064,49.0641529 140.438282,48.8179574 139.207305,47.4638823 C137.85323,45.9867095 136.252959,44.0171458 134.406493,41.5551911 C136.499155,39.5856273 137.237741,37.862259 137.237741,36.1388908 C137.237741,34.5386202 136.252959,33.4307406 135.63747,32.9383497 C134.406493,32.0766655 132.806223,31.9535678 131.452147,31.9535678 C130.713561,31.9535678 128.990193,32.0766655 128.743997,32.0766655 C128.6209,32.0766655 127.143727,31.9535678 126.158945,31.9535678 C125.912749,31.9535678 125.789652,31.9535678 125.789652,32.1997633 C125.789652,32.322861 125.912749,32.322861 126.035847,32.322861 C126.282043,32.322861 126.651336,32.322861 126.774434,32.4459587 C127.51302,32.5690565 127.759215,32.9383497 127.759215,33.8000338 L127.759215,42.9092661 Z M129.605681,33.3076429 C129.605681,33.1845451 129.728779,33.0614474 129.851877,33.0614474 C130.098072,32.9383497 130.713561,32.9383497 131.452147,32.9383497 C133.914102,32.9383497 135.514373,34.661718 135.514373,37.6160636 C135.514373,39.3394319 134.898884,40.5704092 134.160298,41.1858979 C133.667907,41.5551911 132.92932,41.6782888 132.436929,41.6782888 C131.452147,41.6782888 130.344268,41.5551911 129.974975,41.3089956 C129.851877,41.1858979 129.851877,41.1858979 129.851877,41.0628001 L129.605681,33.3076429 Z M140.56138,40.9397024 C140.56138,45.1250254 143.146432,50.0489347 149.547514,50.0489347 C155.086912,50.0489347 158.779844,45.740514 158.779844,40.5704092 C158.779844,35.1541089 154.840717,31.8304701 149.670612,31.8304701 C143.26953,31.8304701 140.56138,37.1236726 140.56138,40.9397024 Z M142.777139,40.201116 C142.777139,35.1541089 145.731485,32.5690565 149.547514,32.5690565 C153.240446,32.5690565 156.564085,35.5234021 156.564085,41.1858979 C156.564085,47.9562732 152.255665,49.1872506 150.163003,49.1872506 C145.97768,49.1872506 142.777139,45.6174163 142.777139,40.201116 Z M161.364897,42.9092661 C161.364897,45.1250254 161.364897,46.9714914 161.241799,47.9562732 C161.118701,48.5717619 160.995604,49.1872506 160.62631,49.1872506 C160.380115,49.1872506 160.13392,49.3103483 159.887724,49.3103483 C159.764626,49.3103483 159.641529,49.4334461 159.641529,49.4334461 C159.641529,49.5565438 159.764626,49.6796415 160.010822,49.6796415 C160.749408,49.6796415 162.226581,49.5565438 162.226581,49.5565438 C162.349679,49.5565438 163.826852,49.6796415 165.057829,49.6796415 C165.304024,49.6796415 165.427122,49.5565438 165.427122,49.4334461 C165.427122,49.3103483 165.427122,49.3103483 165.180927,49.3103483 C164.934731,49.3103483 164.44234,49.3103483 164.196145,49.1872506 C163.457558,49.0641529 163.334461,48.5717619 163.334461,47.9562732 C163.211363,46.9714914 163.211363,45.1250254 163.211363,42.9092661 L163.211363,33.4307406 C163.211363,33.1845451 163.211363,33.0614474 163.457558,32.9383497 C163.703754,32.8152519 164.073047,32.8152519 164.44234,32.8152519 C164.934731,32.8152519 166.411904,32.6921542 167.642881,33.9231316 C168.873859,35.1541089 168.996956,36.7543794 168.996956,37.4929658 C168.996956,39.5856273 167.273588,41.3089956 164.934731,41.3089956 C164.44234,41.3089956 164.319242,41.3089956 164.319242,41.5551911 C164.319242,41.6782888 164.44234,41.6782888 164.565438,41.6782888 L165.057829,41.6782888 C168.381468,41.6782888 170.720325,39.4625296 170.720325,36.1388908 C170.720325,34.9079134 170.104836,33.9231316 169.612445,33.4307406 C169.243152,33.0614474 168.25837,32.0766655 165.304024,32.0766655 C164.196145,32.0766655 162.84207,32.1997633 162.349679,32.1997633 C162.103483,32.1997633 160.749408,32.0766655 159.764626,32.0766655 C159.518431,32.0766655 159.395333,32.0766655 159.395333,32.322861 C159.395333,32.4459587 159.518431,32.4459587 159.641529,32.4459587 C159.887724,32.4459587 160.257017,32.4459587 160.380115,32.5690565 C161.118701,32.6921542 161.364897,33.0614474 161.364897,33.9231316 L161.364897,42.9092661 Z M173.67467,42.9092661 C173.67467,45.1250254 173.67467,46.9714914 173.551573,47.9562732 C173.428475,48.5717619 173.305377,49.1872506 172.936084,49.1872506 C172.689888,49.1872506 172.443693,49.3103483 172.197497,49.3103483 C172.0744,49.3103483 171.951302,49.4334461 171.951302,49.4334461 C171.951302,49.5565438 172.0744,49.6796415 172.320595,49.6796415 L174.659452,49.6796415 C175.274941,49.6796415 176.875211,49.8027393 180.445046,49.8027393 C181.30673,49.8027393 181.552925,49.8027393 181.676023,49.1872506 C181.799121,48.6948597 181.922218,47.0945891 181.922218,46.9714914 C181.922218,46.8483936 181.922218,46.6021982 181.799121,46.6021982 C181.676023,46.6021982 181.676023,46.7252959 181.552925,46.9714914 C181.429828,47.9562732 181.060534,48.4486642 180.568143,48.6948597 C179.952655,48.9410551 178.967873,48.9410551 178.352384,48.9410551 C176.136625,48.9410551 175.767332,48.6948597 175.644234,47.0945891 L175.644234,41.0628001 C175.644234,40.9397024 175.644234,40.9397024 175.767332,40.9397024 C176.136625,40.9397024 178.475482,40.9397024 179.090971,41.0628001 C179.952655,41.1858979 180.19885,41.5551911 180.321948,41.9244843 C180.445046,42.1706797 180.445046,42.4168752 180.445046,42.6630707 C180.445046,42.7861684 180.445046,42.9092661 180.568143,42.9092661 C180.691241,42.9092661 180.691241,42.6630707 180.691241,42.4168752 C180.691241,42.2937775 180.691241,41.4320933 180.814339,40.9397024 C180.937437,40.201116 181.060534,39.8318228 181.060534,39.5856273 C181.060534,39.4625296 181.060534,39.3394319 180.937437,39.3394319 C180.814339,39.3394319 180.691241,39.4625296 180.568143,39.5856273 C180.321948,39.8318228 180.075752,39.8318228 179.460264,39.9549205 L175.767332,39.9549205 C175.644234,39.9549205 175.644234,39.8318228 175.644234,39.7087251 L175.644234,33.3076429 C175.644234,33.1845451 175.644234,33.0614474 175.767332,33.0614474 C176.013527,33.0614474 178.59858,33.0614474 178.967873,33.1845451 C180.19885,33.3076429 180.445046,33.5538383 180.568143,33.9231316 C180.691241,34.169327 180.691241,34.5386202 180.691241,34.7848157 C180.691241,35.0310112 180.691241,35.0310112 180.937437,35.0310112 C181.060534,35.0310112 181.060534,34.9079134 181.060534,34.7848157 C181.060534,34.5386202 181.183632,33.4307406 181.183632,33.3076429 C181.30673,32.6921542 181.429828,32.322861 181.429828,32.1997633 C181.429828,32.0766655 181.429828,31.9535678 181.30673,31.9535678 C181.183632,31.9535678 181.060534,32.0766655 180.937437,32.0766655 C180.691241,32.0766655 180.321948,32.1997633 179.952655,32.1997633 L174.659452,32.1997633 C174.536354,32.1997633 173.059182,32.0766655 172.0744,32.0766655 C171.828204,32.0766655 171.705107,32.0766655 171.705107,32.322861 C171.705107,32.4459587 171.828204,32.4459587 171.951302,32.4459587 C172.197497,32.4459587 172.566791,32.4459587 172.689888,32.5690565 C173.428475,32.6921542 173.67467,33.0614474 173.67467,33.9231316 L173.67467,42.9092661 Z M185.61515,47.0945891 C185.245857,48.2024687 184.753466,49.1872506 183.645587,49.3103483 L183.030098,49.3103483 C182.907,49.3103483 182.783903,49.3103483 182.783903,49.4334461 C182.783903,49.5565438 182.907,49.6796415 183.276294,49.6796415 C184.384173,49.6796415 185.61515,49.5565438 185.861346,49.5565438 C186.107541,49.5565438 187.092323,49.6796415 187.707812,49.6796415 C187.954007,49.6796415 188.077105,49.6796415 188.077105,49.4334461 C188.077105,49.3103483 187.954007,49.3103483 187.83091,49.3103483 L187.584714,49.3103483 C187.215421,49.3103483 186.72303,49.0641529 186.72303,48.6948597 C186.72303,48.3255665 186.846128,47.7100778 187.092323,47.0945891 L188.446398,43.0323639 C188.446398,42.9092661 188.569496,42.7861684 188.692594,42.7861684 L193.739601,42.7861684 C193.862699,42.7861684 193.862699,42.7861684 193.985796,42.9092661 L196.201556,48.5717619 C196.324653,48.9410551 196.201556,49.1872506 196.078458,49.1872506 C195.95536,49.1872506 195.95536,49.3103483 195.95536,49.3103483 C195.95536,49.4334461 196.201556,49.4334461 196.693947,49.4334461 L200.386879,49.4334461 C200.633074,49.4334461 200.87927,49.4334461 200.87927,49.1872506 C200.87927,49.0641529 200.756172,49.0641529 200.633074,49.0641529 C200.386879,49.0641529 200.017585,49.0641529 199.648292,48.9410551 C199.155901,48.8179574 198.540413,48.4486642 197.678728,46.3560027 C196.324653,42.7861684 192.631721,33.3076429 192.262428,32.322861 C192.016233,31.5842746 191.893135,31.4611769 191.770037,31.4611769 C191.646939,31.4611769 191.523842,31.5842746 191.277646,32.322861 L185.61515,47.0945891 Z M188.938789,42.047582 C188.815692,42.047582 188.815692,42.047582 188.815692,41.9244843 L190.908353,35.6464998 C191.031451,35.2772066 191.154549,35.2772066 191.277646,35.6464998 L193.493405,41.9244843 C193.493405,42.047582 193.493405,42.047582 193.370308,42.047582 L188.938789,42.047582 Z M204.079811,35.4003044 C204.818397,36.2619885 207.403449,39.2163341 210.1116,42.047582 C212.573554,44.6326344 215.897193,48.079371 216.143389,48.3255665 C217.374366,49.5565438 217.620561,49.8027393 217.866757,49.8027393 C217.989855,49.8027393 218.112952,49.6796415 218.112952,48.2024687 L218.112952,34.661718 C218.112952,33.3076429 218.23605,32.8152519 218.974636,32.5690565 C219.220832,32.4459587 219.467027,32.4459587 219.590125,32.4459587 C219.713223,32.4459587 219.836321,32.322861 219.836321,32.322861 C219.836321,32.1997633 219.713223,32.1997633 219.467027,32.1997633 C218.482246,32.1997633 217.743659,32.322861 217.497464,32.322861 C217.251268,32.322861 216.143389,32.1997633 215.035509,32.1997633 C214.789313,32.1997633 214.543118,32.1997633 214.543118,32.322861 C214.543118,32.4459587 214.543118,32.4459587 214.789313,32.4459587 C215.035509,32.4459587 215.5279,32.4459587 215.897193,32.5690565 C216.63578,32.8152519 216.758877,33.3076429 216.758877,34.7848157 L217.005073,46.6021982 C216.266486,45.8636118 213.681434,43.0323639 211.465675,40.5704092 C207.89584,36.7543794 204.449104,33.0614474 204.079811,32.5690565 C203.833615,32.322861 203.464322,31.8304701 203.218126,31.8304701 C202.971931,31.8304701 202.971931,32.0766655 202.971931,32.9383497 L202.971931,46.232905 C202.971931,48.3255665 202.848833,49.0641529 202.233345,49.1872506 C201.864051,49.3103483 201.494758,49.3103483 201.248563,49.3103483 C201.125465,49.3103483 201.002367,49.3103483 201.002367,49.4334461 C201.002367,49.5565438 201.125465,49.6796415 201.37166,49.6796415 C202.356442,49.6796415 203.341224,49.5565438 203.58742,49.5565438 C203.833615,49.5565438 204.695299,49.6796415 206.049374,49.6796415 C206.29557,49.6796415 206.418668,49.6796415 206.418668,49.4334461 C206.418668,49.3103483 206.29557,49.3103483 206.172472,49.3103483 C205.926277,49.3103483 205.433886,49.3103483 205.064592,49.1872506 C204.449104,48.9410551 204.202908,48.4486642 204.202908,46.4791004 L204.079811,35.4003044 Z M247.04092,32.4459587 C247.04092,31.9535678 246.917822,31.8304701 246.794724,31.8304701 C246.671627,31.8304701 246.548529,31.9535678 246.425431,32.1997633 L239.655056,46.7252959 L232.515387,32.0766655 C232.392289,31.8304701 232.269192,31.7073723 232.146094,31.7073723 C232.022996,31.7073723 231.899899,31.8304701 231.899899,32.0766655 L230.17653,47.3407846 C230.053433,48.2024687 230.053433,49.1872506 229.191748,49.3103483 C228.822455,49.4334461 228.699357,49.4334461 228.453162,49.4334461 C228.330064,49.4334461 228.206967,49.4334461 228.206967,49.5565438 C228.206967,49.6796415 228.330064,49.8027393 228.57626,49.8027393 C229.191748,49.8027393 230.299628,49.6796415 230.545823,49.6796415 C230.792019,49.6796415 231.899899,49.8027393 232.761583,49.8027393 C233.007778,49.8027393 233.130876,49.8027393 233.130876,49.5565438 C233.130876,49.4334461 233.007778,49.4334461 232.88468,49.4334461 C232.761583,49.4334461 232.392289,49.4334461 232.022996,49.3103483 C231.653703,49.1872506 231.407508,48.9410551 231.407508,48.5717619 L231.407508,47.3407846 L232.392289,36.6312817 L232.515387,36.6312817 C232.761583,37.2467704 235.346635,42.7861684 235.592831,43.2785594 L238.300981,48.6948597 C238.793372,49.5565438 238.916469,49.8027393 239.039567,49.8027393 C239.285763,49.8027393 239.285763,49.5565438 239.778154,48.5717619 L245.440649,36.508184 L245.563747,36.508184 L246.671627,48.4486642 C246.671627,48.8179574 246.671627,49.3103483 246.548529,49.3103483 C246.425431,49.3103483 246.425431,49.4334461 246.425431,49.4334461 C246.425431,49.5565438 246.548529,49.6796415 247.04092,49.6796415 C247.902604,49.8027393 250.364559,49.8027393 250.85695,49.8027393 C251.103145,49.8027393 251.349341,49.6796415 251.349341,49.5565438 C251.349341,49.4334461 251.226243,49.4334461 251.103145,49.4334461 C250.85695,49.4334461 250.241461,49.4334461 249.625972,49.1872506 C248.64119,48.8179574 248.518093,47.58698 248.394995,46.7252959 L247.04092,32.4459587 Z M254.303686,42.9092661 C254.303686,45.1250254 254.303686,46.9714914 254.180588,47.9562732 C254.057491,48.5717619 253.934393,49.1872506 253.5651,49.1872506 C253.318904,49.1872506 253.072709,49.3103483 252.826513,49.3103483 C252.703416,49.3103483 252.580318,49.4334461 252.580318,49.4334461 C252.580318,49.5565438 252.703416,49.6796415 252.949611,49.6796415 L255.288468,49.6796415 C255.903957,49.6796415 257.504227,49.8027393 261.074062,49.8027393 C261.935746,49.8027393 262.181941,49.8027393 262.305039,49.1872506 C262.428137,48.6948597 262.551234,47.0945891 262.551234,46.9714914 C262.551234,46.8483936 262.551234,46.6021982 262.428137,46.6021982 C262.305039,46.6021982 262.305039,46.7252959 262.181941,46.9714914 C262.058843,47.9562732 261.68955,48.4486642 261.197159,48.6948597 C260.581671,48.9410551 259.596889,48.9410551 258.9814,48.9410551 C256.765641,48.9410551 256.396348,48.6948597 256.27325,47.0945891 L256.27325,41.0628001 C256.27325,40.9397024 256.27325,40.9397024 256.396348,40.9397024 C256.765641,40.9397024 259.104498,40.9397024 259.719986,41.0628001 C260.581671,41.1858979 260.827866,41.5551911 260.950964,41.9244843 C261.074062,42.1706797 261.074062,42.4168752 261.074062,42.6630707 C261.074062,42.7861684 261.074062,42.9092661 261.197159,42.9092661 C261.320257,42.9092661 261.320257,42.6630707 261.320257,42.4168752 C261.320257,42.2937775 261.320257,41.4320933 261.443355,40.9397024 C261.566452,40.201116 261.68955,39.8318228 261.68955,39.5856273 C261.68955,39.4625296 261.68955,39.3394319 261.566452,39.3394319 C261.443355,39.3394319 261.320257,39.4625296 261.197159,39.5856273 C260.950964,39.8318228 260.704768,39.8318228 260.08928,39.9549205 L256.396348,39.9549205 C256.27325,39.9549205 256.27325,39.8318228 256.27325,39.7087251 L256.27325,33.3076429 C256.27325,33.1845451 256.27325,33.0614474 256.396348,33.0614474 C256.642543,33.0614474 259.227596,33.0614474 259.596889,33.1845451 C260.827866,33.3076429 261.074062,33.5538383 261.197159,33.9231316 C261.320257,34.169327 261.320257,34.5386202 261.320257,34.7848157 C261.320257,35.0310112 261.320257,35.0310112 261.566452,35.0310112 C261.68955,35.0310112 261.68955,34.9079134 261.68955,34.7848157 C261.68955,34.5386202 261.812648,33.4307406 261.812648,33.3076429 C261.935746,32.6921542 262.058843,32.322861 262.058843,32.1997633 C262.058843,32.0766655 262.058843,31.9535678 261.935746,31.9535678 C261.812648,31.9535678 261.68955,32.0766655 261.566452,32.0766655 C261.320257,32.0766655 260.950964,32.1997633 260.581671,32.1997633 L255.288468,32.1997633 C255.16537,32.1997633 253.688197,32.0766655 252.703416,32.0766655 C252.45722,32.0766655 252.334122,32.0766655 252.334122,32.322861 C252.334122,32.4459587 252.45722,32.4459587 252.580318,32.4459587 C252.826513,32.4459587 253.195807,32.4459587 253.318904,32.5690565 C254.057491,32.6921542 254.303686,33.0614474 254.303686,33.9231316 L254.303686,42.9092661 Z M265.874873,42.9092661 C265.874873,45.1250254 265.874873,46.9714914 265.751775,47.9562732 C265.628678,48.5717619 265.50558,49.1872506 265.136287,49.1872506 C264.890091,49.1872506 264.643896,49.3103483 264.3977,49.3103483 C264.274603,49.3103483 264.151505,49.4334461 264.151505,49.4334461 C264.151505,49.5565438 264.274603,49.6796415 264.520798,49.6796415 C265.259385,49.6796415 266.736557,49.5565438 266.736557,49.5565438 C266.982753,49.5565438 269.937098,49.8027393 271.906662,49.8027393 C275.84579,49.8027393 277.938451,48.2024687 278.923233,47.0945891 C280.277308,45.740514 281.385188,43.5247548 281.385188,40.5704092 C281.385188,37.862259 280.277308,35.8926953 279.169428,34.661718 C276.461278,31.8304701 272.152858,32.0766655 269.814001,32.0766655 C268.459926,32.0766655 266.982753,32.1997633 266.736557,32.1997633 C266.61346,32.1997633 265.136287,32.0766655 264.151505,32.0766655 C263.905309,32.0766655 263.782212,32.0766655 263.782212,32.322861 C263.782212,32.4459587 263.905309,32.4459587 264.028407,32.4459587 C264.274603,32.4459587 264.643896,32.4459587 264.766994,32.5690565 C265.50558,32.6921542 265.751775,33.0614474 265.751775,33.9231316 L265.751775,42.9092661 L265.874873,42.9092661 Z M267.844437,38.4777477 L267.844437,33.5538383 C267.844437,33.3076429 267.967535,33.1845451 268.090632,33.0614474 C268.336828,32.9383497 269.075414,32.9383497 269.567805,32.9383497 C272.275955,32.9383497 274.984106,33.3076429 277.199865,35.5234021 C278.184647,36.508184 279.415624,38.4777477 279.415624,41.3089956 C279.415624,43.4016571 278.800135,45.6174163 277.569158,46.8483936 C276.215083,48.2024687 274.245519,49.0641529 272.02976,49.0641529 C269.32161,49.0641529 268.336828,48.5717619 268.090632,48.079371 C267.844437,47.8331755 267.844437,46.8483936 267.844437,46.3560027 L267.844437,38.4777477 Z M286.309097,38.8470409 L286.309097,33.8000338 C286.309097,32.9383497 286.555293,32.5690565 287.170781,32.4459587 C287.416977,32.4459587 287.540074,32.322861 287.78627,32.322861 C287.909368,32.322861 288.032465,32.322861 288.032465,32.1997633 C288.032465,32.0766655 287.909368,31.9535678 287.663172,31.9535678 C286.924586,31.9535678 285.447413,32.0766655 285.447413,32.0766655 C285.447413,32.0766655 283.847142,31.9535678 283.108556,31.9535678 C282.862361,31.9535678 282.739263,31.9535678 282.739263,32.1997633 C282.739263,32.322861 282.862361,32.322861 282.985458,32.322861 C283.108556,32.322861 283.477849,32.322861 283.724045,32.4459587 C284.216436,32.5690565 284.462631,32.9383497 284.462631,33.8000338 L284.462631,42.9092661 C284.462631,45.1250254 284.462631,46.9714914 284.339533,47.9562732 C284.216436,48.5717619 284.093338,49.1872506 283.724045,49.1872506 C283.477849,49.1872506 283.231654,49.3103483 282.985458,49.3103483 C282.862361,49.3103483 282.739263,49.4334461 282.739263,49.4334461 C282.739263,49.5565438 282.862361,49.6796415 283.108556,49.6796415 C283.847142,49.6796415 285.324315,49.5565438 285.324315,49.5565438 C285.324315,49.5565438 286.924586,49.6796415 288.155563,49.6796415 C288.401759,49.6796415 288.524856,49.5565438 288.524856,49.4334461 C288.524856,49.3103483 288.524856,49.3103483 288.278661,49.3103483 C288.032465,49.3103483 287.540074,49.3103483 287.293879,49.1872506 C286.555293,49.0641529 286.432195,48.5717619 286.432195,47.9562732 C286.309097,46.9714914 286.309097,45.1250254 286.309097,42.9092661 L286.309097,38.8470409 Z M300.219141,50.0489347 C301.696314,50.0489347 303.419682,49.925837 304.404464,49.5565438 C304.773757,49.3103483 304.896855,49.3103483 305.019953,48.9410551 C305.266148,48.2024687 305.512344,46.1098072 305.512344,45.9867095 C305.512344,45.740514 305.512344,45.6174163 305.389246,45.6174163 C305.266148,45.6174163 305.14305,45.740514 305.14305,45.9867095 C305.019953,46.3560027 304.773757,47.4638823 304.281366,47.9562732 C303.296584,48.9410551 301.942509,49.0641529 300.219141,49.0641529 C295.295232,49.0641529 291.848495,45.0019276 291.848495,40.5704092 C291.848495,38.2315522 292.217788,36.1388908 293.941157,34.5386202 C294.802841,33.8000338 296.156916,32.8152519 299.234359,32.8152519 C301.327021,32.8152519 303.050389,33.4307406 303.912073,34.169327 C304.527562,34.661718 304.896855,35.6464998 304.896855,36.508184 C304.896855,36.8774772 304.896855,37.0005749 305.14305,37.0005749 C305.266148,37.0005749 305.389246,36.8774772 305.389246,36.508184 C305.389246,36.1388908 305.389246,34.9079134 305.512344,34.169327 C305.512344,33.3076429 305.635441,33.0614474 305.635441,32.8152519 C305.635441,32.6921542 305.635441,32.5690565 305.389246,32.5690565 C304.650659,32.5690565 303.912073,32.322861 303.050389,32.1997633 C301.942509,31.9535678 300.588434,31.9535678 299.72675,31.9535678 C296.156916,31.9535678 294.064254,33.0614474 292.710179,34.4155225 C290.617518,36.508184 290.125127,39.2163341 290.125127,40.6935069 C290.125127,42.9092661 290.740615,45.4943186 292.956375,47.58698 C294.31045,49.1872506 296.649307,50.0489347 300.219141,50.0489347 Z M310.928644,38.8470409 L310.928644,33.8000338 C310.928644,32.9383497 311.174839,32.5690565 311.790328,32.4459587 C312.036524,32.4459587 312.159621,32.322861 312.405817,32.322861 C312.528914,32.322861 312.652012,32.322861 312.652012,32.1997633 C312.652012,32.0766655 312.528914,31.9535678 312.282719,31.9535678 C311.544133,31.9535678 310.06696,32.0766655 310.06696,32.0766655 C309.943862,32.0766655 308.466689,31.9535678 307.728103,31.9535678 C307.481907,31.9535678 307.35881,31.9535678 307.35881,32.1997633 C307.35881,32.322861 307.481907,32.322861 307.481907,32.322861 C307.605005,32.322861 307.974298,32.322861 308.220494,32.4459587 C308.712885,32.5690565 308.95908,32.9383497 308.95908,33.8000338 L308.95908,42.9092661 C308.95908,45.1250254 308.95908,46.9714914 308.835982,47.9562732 C308.712885,48.5717619 308.589787,49.1872506 308.220494,49.1872506 C307.974298,49.1872506 307.728103,49.3103483 307.481907,49.3103483 C307.35881,49.3103483 307.235712,49.4334461 307.235712,49.4334461 C307.235712,49.5565438 307.35881,49.6796415 307.605005,49.6796415 C308.343591,49.6796415 309.820764,49.5565438 309.820764,49.5565438 C309.943862,49.5565438 311.421035,49.6796415 312.652012,49.6796415 C312.898208,49.6796415 313.021305,49.5565438 313.021305,49.4334461 C313.021305,49.3103483 313.021305,49.3103483 312.77511,49.3103483 C312.528914,49.3103483 312.036524,49.3103483 311.790328,49.1872506 C311.051742,49.0641529 310.928644,48.5717619 310.928644,47.9562732 C310.805546,46.9714914 310.805546,45.1250254 310.805546,42.9092661 L310.928644,38.8470409 Z M317.575922,35.4003044 C318.314508,36.2619885 320.89956,39.2163341 323.607711,42.047582 C326.069665,44.6326344 329.393304,48.079371 329.639499,48.3255665 C330.870477,49.5565438 331.116672,49.8027393 331.362868,49.8027393 C331.485966,49.8027393 331.609063,49.6796415 331.609063,48.2024687 L331.609063,34.661718 C331.609063,33.3076429 331.732161,32.8152519 332.470747,32.5690565 C332.716943,32.4459587 332.963138,32.4459587 333.086236,32.4459587 C333.209334,32.4459587 333.332432,32.322861 333.332432,32.322861 C333.332432,32.1997633 333.209334,32.1997633 332.963138,32.1997633 C331.978356,32.1997633 331.23977,32.322861 330.993575,32.322861 C330.747379,32.322861 329.639499,32.1997633 328.53162,32.1997633 C328.285424,32.1997633 328.039229,32.1997633 328.039229,32.322861 C328.039229,32.4459587 328.039229,32.4459587 328.285424,32.4459587 C328.53162,32.4459587 329.024011,32.4459587 329.393304,32.5690565 C330.13189,32.8152519 330.254988,33.3076429 330.254988,34.7848157 L330.501184,46.6021982 C329.762597,45.8636118 327.177545,43.0323639 324.961786,40.5704092 C321.391951,36.7543794 317.945215,33.0614474 317.575922,32.5690565 C317.329726,32.322861 316.960433,31.8304701 316.714237,31.8304701 C316.468042,31.8304701 316.468042,32.0766655 316.468042,32.9383497 L316.468042,46.232905 C316.468042,48.3255665 316.344944,49.0641529 315.729456,49.1872506 C315.360162,49.3103483 314.990869,49.3103483 314.744674,49.3103483 C314.621576,49.3103483 314.498478,49.3103483 314.498478,49.4334461 C314.498478,49.5565438 314.621576,49.6796415 314.867771,49.6796415 C315.852553,49.6796415 316.837335,49.5565438 317.083531,49.5565438 C317.329726,49.5565438 318.19141,49.6796415 319.545485,49.6796415 C319.791681,49.6796415 319.914778,49.6796415 319.914778,49.4334461 C319.914778,49.3103483 319.791681,49.3103483 319.668583,49.3103483 C319.422388,49.3103483 318.929997,49.3103483 318.560703,49.1872506 C317.945215,48.9410551 317.699019,48.4486642 317.699019,46.4791004 L317.575922,35.4003044 Z M336.532973,42.9092661 C336.532973,45.1250254 336.532973,46.9714914 336.409875,47.9562732 C336.286777,48.5717619 336.163679,49.1872506 335.794386,49.1872506 C335.548191,49.1872506 335.301995,49.3103483 335.0558,49.3103483 C334.932702,49.3103483 334.809604,49.4334461 334.809604,49.4334461 C334.809604,49.5565438 334.932702,49.6796415 335.178898,49.6796415 L337.517754,49.6796415 C338.133243,49.6796415 339.733514,49.8027393 343.303348,49.8027393 C344.165032,49.8027393 344.411228,49.8027393 344.534325,49.1872506 C344.657423,48.6948597 344.780521,47.0945891 344.780521,46.9714914 C344.780521,46.8483936 344.780521,46.6021982 344.657423,46.6021982 C344.534325,46.6021982 344.534325,46.7252959 344.411228,46.9714914 C344.28813,47.9562732 343.918837,48.4486642 343.426446,48.6948597 C342.810957,48.9410551 341.826175,48.9410551 341.210687,48.9410551 C338.994927,48.9410551 338.625634,48.6948597 338.502536,47.0945891 L338.502536,41.0628001 C338.502536,40.9397024 338.502536,40.9397024 338.625634,40.9397024 C338.994927,40.9397024 341.333784,40.9397024 341.949273,41.0628001 C342.810957,41.1858979 343.057153,41.5551911 343.18025,41.9244843 C343.303348,42.1706797 343.303348,42.4168752 343.303348,42.6630707 C343.303348,42.7861684 343.303348,42.9092661 343.426446,42.9092661 C343.549543,42.9092661 343.549543,42.6630707 343.549543,42.4168752 C343.549543,42.2937775 343.549543,41.4320933 343.672641,40.9397024 C343.795739,40.201116 343.918837,39.8318228 343.918837,39.5856273 C343.918837,39.4625296 343.918837,39.3394319 343.795739,39.3394319 C343.672641,39.3394319 343.549543,39.4625296 343.426446,39.5856273 C343.18025,39.8318228 342.934055,39.8318228 342.318566,39.9549205 L338.625634,39.9549205 C338.502536,39.9549205 338.502536,39.8318228 338.502536,39.7087251 L338.502536,33.3076429 C338.502536,33.1845451 338.502536,33.0614474 338.625634,33.0614474 C338.87183,33.0614474 341.456882,33.0614474 341.826175,33.1845451 C343.057153,33.3076429 343.303348,33.5538383 343.426446,33.9231316 C343.549543,34.169327 343.549543,34.5386202 343.549543,34.7848157 C343.549543,35.0310112 343.549543,35.0310112 343.795739,35.0310112 C343.918837,35.0310112 343.918837,34.9079134 343.918837,34.7848157 C343.918837,34.5386202 344.041934,33.4307406 344.041934,33.3076429 C344.165032,32.6921542 344.28813,32.322861 344.28813,32.1997633 C344.28813,32.0766655 344.28813,31.9535678 344.165032,31.9535678 C344.041934,31.9535678 343.918837,32.0766655 343.795739,32.0766655 C343.549543,32.0766655 343.18025,32.1997633 342.810957,32.1997633 L337.517754,32.1997633 C337.394657,32.1997633 335.917484,32.0766655 334.932702,32.0766655 C334.686507,32.0766655 334.563409,32.0766655 334.563409,32.322861 C334.563409,32.4459587 334.686507,32.4459587 334.809604,32.4459587 C335.0558,32.4459587 335.425093,32.4459587 335.548191,32.5690565 C336.286777,32.6921542 336.532973,33.0614474 336.532973,33.9231316 L336.532973,42.9092661 Z M350.443017,50.0489347 C351.673994,50.0489347 352.904971,49.8027393 353.889753,49.0641529 C355.490024,47.9562732 355.859317,46.1098072 355.859317,45.2481231 C355.859317,43.4016571 355.243828,41.9244843 352.41258,39.8318228 L351.797092,39.3394319 C349.581332,37.4929658 348.965844,36.7543794 348.965844,35.4003044 C348.965844,33.6769361 350.196821,32.6921542 351.797092,32.6921542 C353.889753,32.6921542 354.505242,33.6769361 354.751437,33.9231316 C354.874535,34.169327 354.997633,34.7848157 354.997633,35.0310112 C354.997633,35.2772066 354.997633,35.2772066 355.243828,35.2772066 C355.366926,35.2772066 355.366926,35.1541089 355.366926,34.7848157 C355.366926,33.1845451 355.490024,32.4459587 355.490024,32.322861 C355.490024,32.1997633 355.490024,32.1997633 355.243828,32.1997633 C354.997633,32.1997633 354.874535,32.1997633 354.382144,32.0766655 C353.766655,31.9535678 353.151167,31.8304701 352.166385,31.8304701 C349.212039,31.8304701 347.365573,33.5538383 347.365573,36.015793 C347.365573,37.6160636 347.981062,38.9701387 350.319919,41.0628001 L351.304701,41.9244843 C353.274264,43.5247548 354.012851,44.5095367 354.012851,46.1098072 C354.012851,47.58698 352.904971,49.1872506 350.689212,49.1872506 C349.088941,49.1872506 347.611769,48.5717619 347.242475,46.8483936 C347.119378,46.4791004 347.119378,46.232905 347.119378,45.9867095 C347.119378,45.740514 347.119378,45.740514 346.99628,45.740514 C346.873182,45.740514 346.873182,45.8636118 346.873182,46.1098072 C346.873182,46.4791004 346.750085,47.4638823 346.750085,48.5717619 C346.750085,49.1872506 346.750085,49.3103483 347.119378,49.4334461 C348.227257,49.8027393 349.335137,50.0489347 350.443017,50.0489347 Z M366.199527,47.0945891 C365.830233,48.2024687 365.337842,49.1872506 364.229963,49.3103483 L363.614474,49.3103483 C363.491376,49.3103483 363.368279,49.3103483 363.368279,49.4334461 C363.368279,49.5565438 363.491376,49.6796415 363.86067,49.6796415 C364.968549,49.6796415 366.199527,49.5565438 366.445722,49.5565438 C366.691917,49.5565438 367.676699,49.6796415 368.292188,49.6796415 C368.538383,49.6796415 368.661481,49.6796415 368.661481,49.4334461 C368.661481,49.3103483 368.538383,49.3103483 368.415286,49.3103483 L368.16909,49.3103483 C367.799797,49.3103483 367.307406,49.0641529 367.307406,48.6948597 C367.307406,48.3255665 367.430504,47.7100778 367.676699,47.0945891 L369.030774,43.0323639 C369.030774,42.9092661 369.153872,42.7861684 369.27697,42.7861684 L374.323977,42.7861684 C374.447075,42.7861684 374.447075,42.7861684 374.570172,42.9092661 L376.785932,48.5717619 C376.909029,48.9410551 376.785932,49.1872506 376.662834,49.1872506 C376.539736,49.1872506 376.539736,49.3103483 376.539736,49.3103483 C376.539736,49.4334461 376.785932,49.4334461 377.278323,49.4334461 L380.971255,49.4334461 C381.21745,49.4334461 381.463646,49.4334461 381.463646,49.1872506 C381.463646,49.0641529 381.340548,49.0641529 381.21745,49.0641529 C380.971255,49.0641529 380.601961,49.0641529 380.232668,48.9410551 C379.740277,48.8179574 379.124789,48.4486642 378.263104,46.3560027 C376.785932,42.7861684 373.216097,33.3076429 372.846804,32.322861 C372.600609,31.5842746 372.477511,31.4611769 372.354413,31.4611769 C372.231316,31.4611769 372.108218,31.5842746 371.862022,32.322861 L366.199527,47.0945891 Z M369.400068,42.047582 C369.27697,42.047582 369.27697,42.047582 369.27697,41.9244843 L371.369631,35.6464998 C371.492729,35.2772066 371.615827,35.2772066 371.738925,35.6464998 L373.954684,41.9244843 C373.954684,42.047582 373.954684,42.047582 373.831586,42.047582 L369.400068,42.047582 Z M392.788637,47.7100778 C392.788637,48.079371 392.665539,48.3255665 392.296246,48.5717619 C391.680758,48.9410551 390.44978,49.0641529 389.711194,49.0641529 C387.618532,49.0641529 385.525871,48.3255665 383.679405,46.6021982 C382.817721,45.8636118 381.21745,43.4016571 381.21745,40.201116 C381.21745,37.4929658 382.202232,35.4003044 383.556307,34.2924248 C385.279675,32.9383497 387.003044,32.8152519 388.480216,32.8152519 C391.434562,32.8152519 393.404126,33.8000338 393.896517,34.661718 C394.26581,35.2772066 394.388908,35.8926953 394.388908,36.1388908 C394.388908,36.3850862 394.388908,36.508184 394.512005,36.508184 C394.635103,36.508184 394.758201,36.3850862 394.758201,36.015793 C394.758201,33.6769361 394.881299,33.0614474 394.881299,32.6921542 C394.881299,32.5690565 394.881299,32.4459587 394.635103,32.4459587 C394.019614,32.4459587 393.281028,32.322861 392.788637,32.1997633 C392.296246,32.0766655 390.695976,31.8304701 389.218803,31.8304701 C387.372337,31.8304701 385.156578,31.9535678 383.063916,33.3076429 C380.971255,34.661718 379.247886,37.2467704 379.247886,40.9397024 C379.247886,43.894048 380.601961,46.3560027 381.956037,47.58698 C384.541089,49.8027393 387.864728,50.0489347 389.588096,50.0489347 C390.942171,50.0489347 393.034833,49.8027393 394.512005,49.0641529 C394.758201,48.9410551 394.758201,48.8179574 394.758201,47.8331755 L394.758201,45.2481231 L394.758201,42.7861684 C394.758201,41.9244843 395.004396,41.5551911 395.619885,41.4320933 C395.86608,41.4320933 395.989178,41.3089956 396.235374,41.3089956 C396.358471,41.3089956 396.481569,41.3089956 396.481569,41.1858979 C396.481569,41.0628001 396.358471,40.9397024 396.112276,40.9397024 C395.37369,40.9397024 393.896517,41.0628001 393.896517,41.0628001 C393.773419,41.0628001 392.296246,40.9397024 391.311464,40.9397024 C391.065269,40.9397024 390.942171,40.9397024 390.942171,41.1858979 C390.942171,41.3089956 391.065269,41.3089956 391.188367,41.3089956 C391.434562,41.3089956 391.803855,41.3089956 391.926953,41.4320933 C392.911735,41.6782888 392.911735,41.9244843 392.911735,43.7709503 L392.788637,47.7100778 Z M398.820426,42.9092661 C398.820426,45.1250254 398.820426,46.9714914 398.697328,47.9562732 C398.574231,48.5717619 398.451133,49.1872506 398.08184,49.1872506 C397.835644,49.1872506 397.589449,49.3103483 397.343253,49.3103483 C397.220156,49.3103483 397.097058,49.4334461 397.097058,49.4334461 C397.097058,49.5565438 397.220156,49.6796415 397.466351,49.6796415 L399.805208,49.6796415 C400.420697,49.6796415 402.020967,49.8027393 405.590801,49.8027393 C406.452486,49.8027393 406.698681,49.8027393 406.821779,49.1872506 C406.944877,48.6948597 407.067974,47.0945891 407.067974,46.9714914 C407.067974,46.8483936 407.067974,46.6021982 406.944877,46.6021982 C406.821779,46.6021982 406.821779,46.7252959 406.698681,46.9714914 C406.575583,47.9562732 406.20629,48.4486642 405.713899,48.6948597 C405.098411,48.9410551 404.113629,48.9410551 403.49814,48.9410551 C401.282381,48.9410551 400.913088,48.6948597 400.78999,47.0945891 L400.78999,41.0628001 C400.78999,40.9397024 400.78999,40.9397024 400.913088,40.9397024 C401.282381,40.9397024 403.621238,40.9397024 404.236726,41.0628001 C405.098411,41.1858979 405.344606,41.5551911 405.467704,41.9244843 C405.590801,42.1706797 405.590801,42.4168752 405.590801,42.6630707 C405.590801,42.7861684 405.590801,42.9092661 405.713899,42.9092661 C405.836997,42.9092661 405.836997,42.6630707 405.836997,42.4168752 C405.836997,42.2937775 405.836997,41.4320933 405.960095,40.9397024 C406.083192,40.201116 406.20629,39.8318228 406.20629,39.5856273 C406.20629,39.4625296 406.20629,39.3394319 406.083192,39.3394319 C405.960095,39.3394319 405.836997,39.4625296 405.713899,39.5856273 C405.467704,39.8318228 405.221508,39.8318228 404.60602,39.9549205 L400.913088,39.9549205 C400.78999,39.9549205 400.78999,39.8318228 400.78999,39.7087251 L400.78999,33.3076429 C400.78999,33.1845451 400.78999,33.0614474 400.913088,33.0614474 C401.159283,33.0614474 403.744335,33.0614474 404.113629,33.1845451 C405.344606,33.3076429 405.590801,33.5538383 405.713899,33.9231316 C405.836997,34.169327 405.836997,34.5386202 405.836997,34.7848157 C405.836997,35.0310112 405.836997,35.0310112 406.083192,35.0310112 C406.20629,35.0310112 406.20629,34.9079134 406.20629,34.7848157 C406.20629,34.5386202 406.329388,33.4307406 406.329388,33.3076429 C406.452486,32.6921542 406.575583,32.322861 406.575583,32.1997633 C406.575583,32.0766655 406.575583,31.9535678 406.452486,31.9535678 C406.329388,31.9535678 406.20629,32.0766655 406.083192,32.0766655 C405.836997,32.0766655 405.467704,32.1997633 405.098411,32.1997633 L399.805208,32.1997633 C399.68211,32.1997633 398.204937,32.0766655 397.220156,32.0766655 C396.97396,32.0766655 396.850862,32.0766655 396.850862,32.322861 C396.850862,32.4459587 396.97396,32.4459587 397.097058,32.4459587 C397.343253,32.4459587 397.712546,32.4459587 397.835644,32.5690565 C398.574231,32.6921542 398.820426,33.0614474 398.820426,33.9231316 L398.820426,42.9092661 Z M411.007102,35.4003044 C411.745688,36.2619885 414.330741,39.2163341 417.038891,42.047582 C419.500845,44.6326344 422.824484,48.079371 423.07068,48.3255665 C424.301657,49.5565438 424.547853,49.8027393 424.794048,49.8027393 C424.917146,49.8027393 425.040243,49.6796415 425.040243,48.2024687 L425.040243,34.661718 C425.040243,33.3076429 425.163341,32.8152519 425.901928,32.5690565 C426.148123,32.4459587 426.394319,32.4459587 426.517416,32.4459587 C426.640514,32.4459587 426.763612,32.322861 426.763612,32.322861 C426.763612,32.1997633 426.640514,32.1997633 426.394319,32.1997633 C425.409537,32.1997633 424.67095,32.322861 424.424755,32.322861 C424.178559,32.322861 423.07068,32.1997633 421.9628,32.1997633 C421.716605,32.1997633 421.470409,32.1997633 421.470409,32.322861 C421.470409,32.4459587 421.470409,32.4459587 421.716605,32.4459587 C421.9628,32.4459587 422.455191,32.4459587 422.824484,32.5690565 C423.563071,32.8152519 423.686168,33.3076429 423.686168,34.7848157 L423.932364,46.6021982 C423.193777,45.8636118 420.608725,43.0323639 418.392966,40.5704092 C414.823132,36.7543794 411.376395,33.0614474 411.007102,32.5690565 C410.760906,32.322861 410.391613,31.8304701 410.145418,31.8304701 C409.899222,31.8304701 409.899222,32.0766655 409.899222,32.9383497 L409.899222,46.232905 C409.899222,48.3255665 409.776124,49.0641529 409.160636,49.1872506 C408.791343,49.3103483 408.422049,49.3103483 408.175854,49.3103483 C408.052756,49.3103483 407.929658,49.3103483 407.929658,49.4334461 C407.929658,49.5565438 408.052756,49.6796415 408.298952,49.6796415 C409.283734,49.6796415 410.268515,49.5565438 410.514711,49.5565438 C410.760906,49.5565438 411.62259,49.6796415 412.976666,49.6796415 C413.222861,49.6796415 413.345959,49.6796415 413.345959,49.4334461 C413.345959,49.3103483 413.222861,49.3103483 413.099763,49.3103483 C412.853568,49.3103483 412.361177,49.3103483 411.991884,49.1872506 C411.376395,48.9410551 411.1302,48.4486642 411.1302,46.4791004 L411.007102,35.4003044 Z M437.350017,50.0489347 C438.82719,50.0489347 440.550558,49.925837 441.53534,49.5565438 C441.904633,49.3103483 442.027731,49.3103483 442.150829,48.9410551 C442.397024,48.2024687 442.643219,46.1098072 442.643219,45.9867095 C442.643219,45.740514 442.643219,45.6174163 442.520122,45.6174163 C442.397024,45.6174163 442.273926,45.740514 442.273926,45.9867095 C442.150829,46.3560027 441.904633,47.4638823 441.412242,47.9562732 C440.42746,48.9410551 439.073385,49.0641529 437.350017,49.0641529 C432.426108,49.0641529 428.979371,45.0019276 428.979371,40.5704092 C428.979371,38.2315522 429.348664,36.1388908 431.072032,34.5386202 C431.933717,33.8000338 433.287792,32.8152519 436.365235,32.8152519 C438.457897,32.8152519 440.181265,33.4307406 441.042949,34.169327 C441.658438,34.661718 442.027731,35.6464998 442.027731,36.508184 C442.027731,36.8774772 442.027731,37.0005749 442.273926,37.0005749 C442.397024,37.0005749 442.397024,36.8774772 442.520122,36.508184 C442.520122,36.1388908 442.520122,34.9079134 442.643219,34.169327 C442.643219,33.3076429 442.766317,33.0614474 442.766317,32.8152519 C442.766317,32.6921542 442.766317,32.5690565 442.520122,32.5690565 C441.781535,32.5690565 441.042949,32.322861 440.181265,32.1997633 C439.073385,31.9535678 437.71931,31.9535678 436.857626,31.9535678 C433.287792,31.9535678 431.19513,33.0614474 429.841055,34.4155225 C427.748394,36.508184 427.256003,39.2163341 427.256003,40.6935069 C427.256003,42.9092661 427.871491,45.4943186 430.087251,47.58698 C431.564423,49.1872506 433.90328,50.0489347 437.350017,50.0489347 Z M451.013865,45.6174163 C451.013865,45.9867095 451.013865,46.9714914 450.890768,47.9562732 C450.890768,48.5717619 450.644572,49.1872506 450.152181,49.1872506 C449.905986,49.1872506 449.65979,49.3103483 449.413595,49.3103483 C449.290497,49.3103483 449.167399,49.4334461 449.167399,49.4334461 C449.167399,49.5565438 449.290497,49.6796415 449.536693,49.6796415 C450.275279,49.6796415 451.752452,49.5565438 451.752452,49.5565438 C451.87555,49.5565438 453.352722,49.6796415 454.5837,49.6796415 C454.829895,49.6796415 454.952993,49.5565438 454.952993,49.4334461 C454.952993,49.3103483 454.952993,49.3103483 454.706797,49.3103483 C454.460602,49.3103483 453.968211,49.3103483 453.722016,49.1872506 C452.983429,49.0641529 452.860331,48.5717619 452.737234,47.9562732 C452.614136,46.9714914 452.614136,45.9867095 452.614136,45.6174163 L452.614136,43.6478526 C452.614136,42.9092661 452.614136,42.1706797 452.983429,41.3089956 C453.352722,40.3242137 456.676361,34.9079134 457.414948,33.9231316 C457.907339,33.3076429 458.153534,33.0614474 458.645925,32.6921542 C459.015218,32.4459587 459.507609,32.322861 459.753805,32.322861 C460,32.322861 460,32.1997633 460,32.0766655 C460,31.9535678 459.876902,31.9535678 459.753805,31.9535678 C459.261414,31.9535678 457.661143,32.0766655 457.538045,32.0766655 C457.29185,32.0766655 456.553263,31.9535678 456.060873,31.9535678 C455.814677,31.9535678 455.691579,31.9535678 455.691579,32.0766655 C455.691579,32.1997633 455.814677,32.1997633 456.060873,32.322861 C456.307068,32.4459587 456.430166,32.6921542 456.430166,32.9383497 C456.430166,33.1845451 456.307068,33.6769361 456.060873,34.169327 C455.568482,34.9079134 452.614136,39.9549205 452.244843,40.9397024 C451.87555,40.3242137 448.305715,34.2924248 447.936422,33.5538383 C447.813324,33.1845451 447.690227,32.9383497 447.690227,32.6921542 C447.690227,32.4459587 447.813324,32.322861 447.936422,32.322861 C448.182618,32.1997633 448.305715,32.1997633 448.305715,32.0766655 C448.305715,31.9535678 448.305715,31.9535678 448.05952,31.9535678 C447.197836,31.9535678 446.213054,32.0766655 446.089956,32.0766655 C445.966858,32.0766655 444.24349,31.9535678 443.751099,31.9535678 C443.504904,31.9535678 443.504904,32.0766655 443.504904,32.0766655 C443.504904,32.1997633 443.628001,32.1997633 443.751099,32.1997633 C443.997295,32.1997633 444.366588,32.322861 444.735881,32.5690565 C445.105174,32.8152519 445.720663,33.4307406 446.336152,34.2924248 C447.197836,35.5234021 450.275279,40.5704092 450.398377,40.9397024 C450.644572,41.5551911 450.890768,42.1706797 450.890768,43.4016571 L451.013865,45.6174163 Z" id="EMA" stroke="#034EA2" stroke-width="0.5" fill="#034EA2" fill-rule="nonzero"></path>
        <g id="logo" transform="translate(12.000000, 8.000000)">
            <path d="M73,36.5 C73,16.362069 56.637931,0 36.5,0 C16.362069,0 0,16.362069 0,36.5 C0,56.637931 16.362069,73 36.5,73 C56.637931,73 73,56.637931 73,36.5 Z" id="path44" fill="#034EA2" fill-rule="nonzero"></path>
            <g id="Clipped" transform="translate(26.000000, 40.000000)">
                <mask id="mask-2" fill="white">
                    <use xlink:href="#path-1"></use>
                </mask>
                <g id="SVGID_1_"></g>
            </g>
            <path d="M14.1361257,27 C12.7539267,29.6033058 12,32.5785124 12,35.677686 C12,47.4545455 22.6806283,57 36,57 C49.1937173,57 60,47.4545455 60,35.677686 C60,32.5785124 59.2460733,29.6033058 57.8638743,27 L14.1361257,27 Z" id="path90" fill="url(#linearGradient-3)" fill-rule="nonzero"></path>
            <path d="M36,37 L36,20 C23.75,20.2575758 14,23.8636364 14,28.5 C14,33.0075758 24,36.7424242 36,37 Z" id="path114" fill="url(#linearGradient-4)" fill-rule="nonzero"></path>
            <path d="M58,28.5 C58,23.9924242 48.25,20.2575758 36,20 L36,37 C48,36.7424242 58,33.0075758 58,28.5 Z" id="path138" fill="url(#linearGradient-5)" fill-rule="nonzero"></path>
            <path d="M36.5,37 C41.2076923,37 45,33.2651515 45,28.5 C45,23.8636364 41.2076923,20 36.5,20 C31.9230769,20 28,23.8636364 28,28.5 C28,33.1363636 31.7923077,37 36.5,37 Z" id="path160" fill="url(#radialGradient-6)" fill-rule="nonzero"></path>
        </g>
    </g>
</svg>