<svg xmlns="http://www.w3.org/2000/svg" xmlns:xlink="http://www.w3.org/1999/xlink" width="1963" zoomAndPan="magnify" viewBox="0 0 1472.25 149.249994" height="199" preserveAspectRatio="xMidYMid meet" version="1.0"><defs><g/><clipPath id="be45091c56"><path d="M 41.257812 48 L 100 48 L 100 106 L 41.257812 106 Z M 41.257812 48 " clip-rule="nonzero"/></clipPath></defs><g clip-path="url(#be45091c56)"><path fill="#244367" d="M 70.230469 105.84375 C 54.234375 105.84375 41.257812 92.949219 41.257812 77.054688 C 41.257812 61.160156 54.234375 48.265625 70.230469 48.265625 C 86.226562 48.265625 99.199219 61.160156 99.199219 77.054688 C 99.199219 92.949219 86.226562 105.84375 70.230469 105.84375 Z M 70.230469 100.609375 C 83.316406 100.609375 93.933594 90.058594 93.933594 77.054688 C 93.933594 64.050781 83.316406 53.5 70.230469 53.5 C 57.140625 53.5 46.523438 64.050781 46.523438 77.054688 C 46.523438 90.058594 57.140625 100.609375 70.230469 100.609375 Z M 76.496094 72.5 C 76.320312 71.777344 76.058594 71.109375 75.730469 70.511719 C 75.402344 69.910156 74.976562 69.378906 74.453125 68.929688 C 73.945312 68.492188 73.34375 68.152344 72.644531 67.90625 C 71.957031 67.660156 71.148438 67.539062 70.230469 67.539062 C 68.898438 67.539062 67.746094 67.796875 66.773438 68.34375 C 65.796875 68.875 65.003906 69.597656 64.386719 70.496094 C 63.78125 71.398438 63.328125 72.40625 63.039062 73.550781 C 62.738281 74.695312 62.585938 75.867188 62.585938 77.054688 C 62.585938 78.238281 62.738281 79.410156 63.039062 80.554688 C 63.328125 81.703125 63.78125 82.710938 64.386719 83.609375 C 65.003906 84.511719 65.796875 85.234375 66.773438 85.761719 C 67.746094 86.308594 68.898438 86.570312 70.230469 86.570312 C 71.214844 86.570312 72.09375 86.40625 72.835938 86.0625 C 73.589844 85.722656 74.234375 85.261719 74.78125 84.660156 C 75.316406 84.074219 75.742188 83.375 76.046875 82.585938 C 76.347656 81.78125 76.554688 80.9375 76.648438 80.023438 L 80.941406 80.023438 C 80.84375 81.523438 80.519531 82.886719 79.96875 84.125 C 79.417969 85.355469 78.679688 86.417969 77.734375 87.316406 C 76.800781 88.214844 75.6875 88.910156 74.425781 89.402344 C 73.152344 89.894531 71.765625 90.140625 70.230469 90.140625 C 68.363281 90.140625 66.675781 89.796875 65.179688 89.101562 C 63.683594 88.421875 62.421875 87.480469 61.394531 86.292969 C 60.367188 85.097656 59.570312 83.71875 59.019531 82.125 C 58.472656 80.542969 58.199219 78.851562 58.199219 77.054688 C 58.199219 75.28125 58.472656 73.605469 59.019531 72.011719 C 59.570312 70.429688 60.367188 69.039062 61.394531 67.851562 C 62.421875 66.667969 63.683594 65.710938 65.179688 65.015625 C 66.675781 64.324219 68.363281 63.96875 70.230469 63.96875 C 71.640625 63.96875 72.972656 64.160156 74.207031 64.539062 C 75.457031 64.933594 76.554688 65.496094 77.5 66.230469 C 78.460938 66.953125 79.226562 67.851562 79.816406 68.902344 C 80.394531 69.953125 80.765625 71.152344 80.902344 72.5 Z M 76.496094 72.5 " fill-opacity="1" fill-rule="nonzero"/></g><g fill="#244367" fill-opacity="1"><g transform="translate(114.774575, 95.477513)"><g><path d="M 2.09375 -3.4375 C 2.09375 -5.820312 2.351562 -7.832031 2.875 -9.46875 C 3.40625 -11.101562 4.257812 -12.59375 5.4375 -13.9375 C 6.625 -15.289062 8.300781 -16.75 10.46875 -18.3125 L 16.234375 -22.46875 C 17.804688 -23.59375 19.03125 -24.566406 19.90625 -25.390625 C 20.789062 -26.222656 21.453125 -27.09375 21.890625 -28 C 22.335938 -28.90625 22.5625 -29.941406 22.5625 -31.109375 C 22.5625 -32.859375 22.03125 -34.210938 20.96875 -35.171875 C 19.90625 -36.128906 18.304688 -36.609375 16.171875 -36.609375 C 14.117188 -36.609375 12.296875 -36.117188 10.703125 -35.140625 C 9.109375 -34.171875 7.789062 -32.835938 6.75 -31.140625 L 6.1875 -30.984375 L 1.484375 -36.25 C 3.015625 -38.539062 5.015625 -40.378906 7.484375 -41.765625 C 9.960938 -43.160156 12.96875 -43.859375 16.5 -43.859375 C 19.726562 -43.859375 22.429688 -43.320312 24.609375 -42.25 C 26.796875 -41.1875 28.414062 -39.734375 29.46875 -37.890625 C 30.519531 -36.046875 31.046875 -33.929688 31.046875 -31.546875 C 31.046875 -29.503906 30.617188 -27.632812 29.765625 -25.9375 C 28.910156 -24.238281 27.722656 -22.671875 26.203125 -21.234375 C 24.679688 -19.796875 22.738281 -18.25 20.375 -16.59375 L 15.265625 -13.015625 C 13.722656 -11.910156 12.644531 -10.925781 12.03125 -10.0625 C 11.425781 -9.207031 11.125 -8.238281 11.125 -7.15625 L 30.640625 -7.15625 L 30.640625 0 L 2.09375 0 Z M 2.09375 -3.4375 "/></g></g></g><g fill="#244367" fill-opacity="1"><g transform="translate(148.502845, 95.477513)"><g><path d="M 21.109375 0.625 C 17.585938 0.625 14.519531 -0.15625 11.90625 -1.71875 C 9.289062 -3.289062 7.257812 -5.734375 5.8125 -9.046875 C 4.363281 -12.359375 3.640625 -16.546875 3.640625 -21.609375 C 3.640625 -26.679688 4.363281 -30.875 5.8125 -34.1875 C 7.257812 -37.5 9.289062 -39.9375 11.90625 -41.5 C 14.519531 -43.070312 17.585938 -43.859375 21.109375 -43.859375 C 24.660156 -43.859375 27.738281 -43.070312 30.34375 -41.5 C 32.957031 -39.9375 34.988281 -37.5 36.4375 -34.1875 C 37.894531 -30.875 38.625 -26.679688 38.625 -21.609375 C 38.625 -16.546875 37.894531 -12.359375 36.4375 -9.046875 C 34.988281 -5.734375 32.957031 -3.289062 30.34375 -1.71875 C 27.738281 -0.15625 24.660156 0.625 21.109375 0.625 Z M 21.109375 -6.625 C 23.046875 -6.625 24.664062 -7.09375 25.96875 -8.03125 C 27.269531 -8.96875 28.269531 -10.539062 28.96875 -12.75 C 29.664062 -14.957031 30.015625 -17.910156 30.015625 -21.609375 C 30.015625 -25.316406 29.664062 -28.273438 28.96875 -30.484375 C 28.269531 -32.691406 27.269531 -34.265625 25.96875 -35.203125 C 24.664062 -36.140625 23.046875 -36.609375 21.109375 -36.609375 C 19.179688 -36.609375 17.566406 -36.140625 16.265625 -35.203125 C 14.960938 -34.265625 13.960938 -32.691406 13.265625 -30.484375 C 12.566406 -28.273438 12.21875 -25.316406 12.21875 -21.609375 C 12.21875 -17.910156 12.566406 -14.957031 13.265625 -12.75 C 13.960938 -10.539062 14.960938 -8.96875 16.265625 -8.03125 C 17.566406 -7.09375 19.179688 -6.625 21.109375 -6.625 Z M 21.109375 -6.625 "/></g></g></g><g fill="#244367" fill-opacity="1"><g transform="translate(190.744469, 95.477513)"><g><path d="M 2.09375 -3.4375 C 2.09375 -5.820312 2.351562 -7.832031 2.875 -9.46875 C 3.40625 -11.101562 4.257812 -12.59375 5.4375 -13.9375 C 6.625 -15.289062 8.300781 -16.75 10.46875 -18.3125 L 16.234375 -22.46875 C 17.804688 -23.59375 19.03125 -24.566406 19.90625 -25.390625 C 20.789062 -26.222656 21.453125 -27.09375 21.890625 -28 C 22.335938 -28.90625 22.5625 -29.941406 22.5625 -31.109375 C 22.5625 -32.859375 22.03125 -34.210938 20.96875 -35.171875 C 19.90625 -36.128906 18.304688 -36.609375 16.171875 -36.609375 C 14.117188 -36.609375 12.296875 -36.117188 10.703125 -35.140625 C 9.109375 -34.171875 7.789062 -32.835938 6.75 -31.140625 L 6.1875 -30.984375 L 1.484375 -36.25 C 3.015625 -38.539062 5.015625 -40.378906 7.484375 -41.765625 C 9.960938 -43.160156 12.96875 -43.859375 16.5 -43.859375 C 19.726562 -43.859375 22.429688 -43.320312 24.609375 -42.25 C 26.796875 -41.1875 28.414062 -39.734375 29.46875 -37.890625 C 30.519531 -36.046875 31.046875 -33.929688 31.046875 -31.546875 C 31.046875 -29.503906 30.617188 -27.632812 29.765625 -25.9375 C 28.910156 -24.238281 27.722656 -22.671875 26.203125 -21.234375 C 24.679688 -19.796875 22.738281 -18.25 20.375 -16.59375 L 15.265625 -13.015625 C 13.722656 -11.910156 12.644531 -10.925781 12.03125 -10.0625 C 11.425781 -9.207031 11.125 -8.238281 11.125 -7.15625 L 30.640625 -7.15625 L 30.640625 0 L 2.09375 0 Z M 2.09375 -3.4375 "/></g></g></g><g fill="#244367" fill-opacity="1"><g transform="translate(224.472739, 95.477513)"><g><path d="M 17.625 0.625 C 12.988281 0.625 9.3125 -0.351562 6.59375 -2.3125 C 3.875 -4.28125 2.148438 -7.054688 1.421875 -10.640625 L 7.890625 -13.65625 L 8.578125 -13.546875 C 9.304688 -11.160156 10.34375 -9.421875 11.6875 -8.328125 C 13.039062 -7.234375 14.921875 -6.6875 17.328125 -6.6875 C 19.648438 -6.6875 21.421875 -7.226562 22.640625 -8.3125 C 23.867188 -9.394531 24.484375 -10.972656 24.484375 -13.046875 C 24.484375 -15.078125 23.875 -16.632812 22.65625 -17.71875 C 21.445312 -18.800781 19.671875 -19.34375 17.328125 -19.34375 L 10.828125 -19.34375 L 10.828125 -26 L 16.5 -26 C 18.4375 -26 19.972656 -26.476562 21.109375 -27.4375 C 22.253906 -28.40625 22.828125 -29.785156 22.828125 -31.578125 C 22.828125 -33.359375 22.289062 -34.695312 21.21875 -35.59375 C 20.144531 -36.488281 18.660156 -36.9375 16.765625 -36.9375 C 14.835938 -36.9375 13.128906 -36.484375 11.640625 -35.578125 C 10.148438 -34.671875 8.953125 -33.445312 8.046875 -31.90625 L 7.359375 -31.796875 L 2.875 -37.03125 C 4.382812 -39.070312 6.332031 -40.71875 8.71875 -41.96875 C 11.101562 -43.226562 13.941406 -43.859375 17.234375 -43.859375 C 21.773438 -43.859375 25.238281 -42.910156 27.625 -41.015625 C 30.007812 -39.117188 31.203125 -36.457031 31.203125 -33.03125 C 31.203125 -30.957031 30.71875 -29.1875 29.75 -27.71875 C 28.78125 -26.25 27.390625 -24.984375 25.578125 -23.921875 L 25.578125 -23.296875 C 30.566406 -21.546875 33.0625 -18 33.0625 -12.65625 C 33.0625 -9.976562 32.488281 -7.640625 31.34375 -5.640625 C 30.195312 -3.648438 28.472656 -2.109375 26.171875 -1.015625 C 23.867188 0.078125 21.019531 0.625 17.625 0.625 Z M 17.625 0.625 "/></g></g></g><g fill="#244367" fill-opacity="1"><g transform="translate(260.240653, 95.477513)"><g/></g></g><g fill="#244367" fill-opacity="1"><g transform="translate(274.518272, 95.477513)"><g><path d="M 19.15625 0.625 C 16.164062 0.625 13.5 0.253906 11.15625 -0.484375 C 8.820312 -1.222656 6.875 -2.191406 5.3125 -3.390625 C 3.757812 -4.597656 2.570312 -5.921875 1.75 -7.359375 L 6.453125 -13.09375 L 7.1875 -13.09375 C 8.488281 -11.164062 10.140625 -9.628906 12.140625 -8.484375 C 14.140625 -7.335938 16.476562 -6.765625 19.15625 -6.765625 C 21.445312 -6.765625 23.171875 -7.25 24.328125 -8.21875 C 25.492188 -9.1875 26.078125 -10.519531 26.078125 -12.21875 C 26.078125 -13.238281 25.890625 -14.09375 25.515625 -14.78125 C 25.140625 -15.476562 24.519531 -16.070312 23.65625 -16.5625 C 22.789062 -17.050781 21.617188 -17.472656 20.140625 -17.828125 L 14.578125 -19.109375 C 10.691406 -19.992188 7.796875 -21.460938 5.890625 -23.515625 C 3.992188 -25.578125 3.046875 -28.253906 3.046875 -31.546875 C 3.046875 -33.992188 3.65625 -36.144531 4.875 -38 C 6.101562 -39.851562 7.882812 -41.289062 10.21875 -42.3125 C 12.550781 -43.34375 15.34375 -43.859375 18.59375 -43.859375 C 21.925781 -43.859375 24.78125 -43.414062 27.15625 -42.53125 C 29.53125 -41.65625 31.535156 -40.3125 33.171875 -38.5 L 28.953125 -32.703125 L 28.21875 -32.703125 C 26.988281 -33.984375 25.582031 -34.941406 24 -35.578125 C 22.425781 -36.222656 20.625 -36.546875 18.59375 -36.546875 C 16.25 -36.546875 14.46875 -36.128906 13.25 -35.296875 C 12.03125 -34.472656 11.421875 -33.332031 11.421875 -31.875 C 11.421875 -30.519531 11.847656 -29.4375 12.703125 -28.625 C 13.554688 -27.8125 15.039062 -27.179688 17.15625 -26.734375 L 22.828125 -25.546875 C 27.023438 -24.660156 30.070312 -23.15625 31.96875 -21.03125 C 33.863281 -18.914062 34.8125 -16.15625 34.8125 -12.75 C 34.8125 -10.039062 34.226562 -7.6875 33.0625 -5.6875 C 31.894531 -3.6875 30.140625 -2.132812 27.796875 -1.03125 C 25.453125 0.0703125 22.570312 0.625 19.15625 0.625 Z M 19.15625 0.625 "/></g></g></g><g fill="#244367" fill-opacity="1"><g transform="translate(311.645958, 95.477513)"><g><path d="M 4.703125 0 L 4.703125 -32.625 L 12.5625 -32.625 L 12.5625 -28.234375 L 13.1875 -28.125 C 14.25 -29.875 15.492188 -31.160156 16.921875 -31.984375 C 18.359375 -32.816406 20.191406 -33.234375 22.421875 -33.234375 C 24.878906 -33.234375 26.859375 -32.742188 28.359375 -31.765625 C 29.859375 -30.796875 30.953125 -29.375 31.640625 -27.5 L 32.265625 -27.5 C 33.265625 -29.445312 34.554688 -30.890625 36.140625 -31.828125 C 37.734375 -32.765625 39.710938 -33.234375 42.078125 -33.234375 C 48.835938 -33.234375 52.21875 -29.46875 52.21875 -21.9375 L 52.21875 0 L 44.03125 0 L 44.03125 -20.90625 C 44.03125 -22.820312 43.65625 -24.203125 42.90625 -25.046875 C 42.15625 -25.890625 40.953125 -26.3125 39.296875 -26.3125 C 34.804688 -26.3125 32.5625 -23.304688 32.5625 -17.296875 L 32.5625 0 L 24.359375 0 L 24.359375 -20.90625 C 24.359375 -22.820312 23.976562 -24.203125 23.21875 -25.046875 C 22.46875 -25.890625 21.265625 -26.3125 19.609375 -26.3125 C 17.492188 -26.3125 15.84375 -25.609375 14.65625 -24.203125 C 13.476562 -22.796875 12.890625 -20.554688 12.890625 -17.484375 L 12.890625 0 Z M 4.703125 0 "/></g></g></g><g fill="#244367" fill-opacity="1"><g transform="translate(368.046934, 95.477513)"><g><path d="M 12.71875 0.625 C 10.625 0.625 8.804688 0.238281 7.265625 -0.53125 C 5.734375 -1.300781 4.550781 -2.429688 3.71875 -3.921875 C 2.894531 -5.410156 2.484375 -7.195312 2.484375 -9.28125 C 2.484375 -11.21875 2.894531 -12.835938 3.71875 -14.140625 C 4.550781 -15.453125 5.832031 -16.523438 7.5625 -17.359375 C 9.300781 -18.203125 11.570312 -18.851562 14.375 -19.3125 C 16.320312 -19.625 17.800781 -19.96875 18.8125 -20.34375 C 19.832031 -20.71875 20.519531 -21.140625 20.875 -21.609375 C 21.226562 -22.085938 21.40625 -22.691406 21.40625 -23.421875 C 21.40625 -24.460938 21.039062 -25.257812 20.3125 -25.8125 C 19.582031 -26.363281 18.367188 -26.640625 16.671875 -26.640625 C 14.859375 -26.640625 13.132812 -26.234375 11.5 -25.421875 C 9.863281 -24.617188 8.445312 -23.554688 7.25 -22.234375 L 6.65625 -22.234375 L 3.21875 -27.40625 C 4.875 -29.238281 6.894531 -30.664062 9.28125 -31.6875 C 11.664062 -32.71875 14.269531 -33.234375 17.09375 -33.234375 C 21.40625 -33.234375 24.523438 -32.316406 26.453125 -30.484375 C 28.390625 -28.648438 29.359375 -26.050781 29.359375 -22.6875 L 29.359375 -8.515625 C 29.359375 -7.054688 30 -6.328125 31.28125 -6.328125 C 31.78125 -6.328125 32.265625 -6.414062 32.734375 -6.59375 L 33.15625 -6.46875 L 33.734375 -0.765625 C 33.285156 -0.472656 32.65625 -0.234375 31.84375 -0.046875 C 31.039062 0.140625 30.15625 0.234375 29.1875 0.234375 C 27.238281 0.234375 25.71875 -0.140625 24.625 -0.890625 C 23.53125 -1.640625 22.742188 -2.8125 22.265625 -4.40625 L 21.640625 -4.46875 C 20.046875 -1.070312 17.070312 0.625 12.71875 0.625 Z M 15.3125 -5.5 C 17.207031 -5.5 18.722656 -6.132812 19.859375 -7.40625 C 20.992188 -8.675781 21.5625 -10.445312 21.5625 -12.71875 L 21.5625 -16.03125 L 21 -16.140625 C 20.5 -15.742188 19.847656 -15.410156 19.046875 -15.140625 C 18.253906 -14.878906 17.109375 -14.625 15.609375 -14.375 C 13.835938 -14.070312 12.5625 -13.5625 11.78125 -12.84375 C 11 -12.125 10.609375 -11.101562 10.609375 -9.78125 C 10.609375 -8.382812 11.019531 -7.320312 11.84375 -6.59375 C 12.675781 -5.863281 13.832031 -5.5 15.3125 -5.5 Z M 15.3125 -5.5 "/></g></g></g><g fill="#244367" fill-opacity="1"><g transform="translate(402.42553, 95.477513)"><g><path d="M 4.703125 0 L 4.703125 -32.625 L 12.65625 -32.625 L 12.65625 -27.765625 L 13.28125 -27.65625 C 14.0625 -29.46875 15.09375 -30.796875 16.375 -31.640625 C 17.664062 -32.484375 19.226562 -32.90625 21.0625 -32.90625 C 22.90625 -32.90625 24.3125 -32.59375 25.28125 -31.96875 L 23.890625 -24.90625 L 23.265625 -24.78125 C 22.734375 -25 22.222656 -25.15625 21.734375 -25.25 C 21.242188 -25.351562 20.644531 -25.40625 19.9375 -25.40625 C 17.644531 -25.40625 15.894531 -24.597656 14.6875 -22.984375 C 13.488281 -21.378906 12.890625 -18.804688 12.890625 -15.265625 L 12.890625 0 Z M 4.703125 0 "/></g></g></g><g fill="#244367" fill-opacity="1"><g transform="translate(427.995168, 95.477513)"><g><path d="M 22.5 -7.78125 L 24.640625 -1.71875 C 23.742188 -0.988281 22.625 -0.414062 21.28125 0 C 19.945312 0.414062 18.429688 0.625 16.734375 0.625 C 13.203125 0.625 10.519531 -0.332031 8.6875 -2.25 C 6.851562 -4.175781 5.9375 -6.972656 5.9375 -10.640625 L 5.9375 -26.140625 L 0.96875 -26.140625 L 0.96875 -32.640625 L 5.9375 -32.640625 L 5.9375 -39 L 14.140625 -40.328125 L 14.140625 -32.640625 L 23.390625 -32.640625 L 23.390625 -26.140625 L 14.140625 -26.140625 L 14.140625 -11.234375 C 14.140625 -9.617188 14.472656 -8.441406 15.140625 -7.703125 C 15.804688 -6.960938 16.78125 -6.59375 18.0625 -6.59375 C 19.519531 -6.59375 20.796875 -6.988281 21.890625 -7.78125 Z M 22.5 -7.78125 "/></g></g></g><g fill="#244367" fill-opacity="1"><g transform="translate(453.328324, 95.477513)"><g/></g></g><g fill="#244367" fill-opacity="1"><g transform="translate(467.605943, 95.477513)"><g><path d="M 21.171875 -43.234375 C 28.191406 -43.234375 33.550781 -41.414062 37.25 -37.78125 C 40.945312 -34.15625 42.796875 -28.765625 42.796875 -21.609375 C 42.796875 -14.472656 40.945312 -9.085938 37.25 -5.453125 C 33.550781 -1.816406 28.191406 0 21.171875 0 L 5.625 0 L 5.625 -43.234375 Z M 20.671875 -7.1875 C 25.128906 -7.1875 28.460938 -8.320312 30.671875 -10.59375 C 32.878906 -12.875 33.984375 -16.546875 33.984375 -21.609375 C 33.984375 -26.679688 32.878906 -30.351562 30.671875 -32.625 C 28.460938 -34.90625 25.128906 -36.046875 20.671875 -36.046875 L 14.171875 -36.046875 L 14.171875 -7.1875 Z M 20.671875 -7.1875 "/></g></g></g><g fill="#244367" fill-opacity="1"><g transform="translate(513.808643, 95.477513)"><g><path d="M 12.71875 0.625 C 10.625 0.625 8.804688 0.238281 7.265625 -0.53125 C 5.734375 -1.300781 4.550781 -2.429688 3.71875 -3.921875 C 2.894531 -5.410156 2.484375 -7.195312 2.484375 -9.28125 C 2.484375 -11.21875 2.894531 -12.835938 3.71875 -14.140625 C 4.550781 -15.453125 5.832031 -16.523438 7.5625 -17.359375 C 9.300781 -18.203125 11.570312 -18.851562 14.375 -19.3125 C 16.320312 -19.625 17.800781 -19.96875 18.8125 -20.34375 C 19.832031 -20.71875 20.519531 -21.140625 20.875 -21.609375 C 21.226562 -22.085938 21.40625 -22.691406 21.40625 -23.421875 C 21.40625 -24.460938 21.039062 -25.257812 20.3125 -25.8125 C 19.582031 -26.363281 18.367188 -26.640625 16.671875 -26.640625 C 14.859375 -26.640625 13.132812 -26.234375 11.5 -25.421875 C 9.863281 -24.617188 8.445312 -23.554688 7.25 -22.234375 L 6.65625 -22.234375 L 3.21875 -27.40625 C 4.875 -29.238281 6.894531 -30.664062 9.28125 -31.6875 C 11.664062 -32.71875 14.269531 -33.234375 17.09375 -33.234375 C 21.40625 -33.234375 24.523438 -32.316406 26.453125 -30.484375 C 28.390625 -28.648438 29.359375 -26.050781 29.359375 -22.6875 L 29.359375 -8.515625 C 29.359375 -7.054688 30 -6.328125 31.28125 -6.328125 C 31.78125 -6.328125 32.265625 -6.414062 32.734375 -6.59375 L 33.15625 -6.46875 L 33.734375 -0.765625 C 33.285156 -0.472656 32.65625 -0.234375 31.84375 -0.046875 C 31.039062 0.140625 30.15625 0.234375 29.1875 0.234375 C 27.238281 0.234375 25.71875 -0.140625 24.625 -0.890625 C 23.53125 -1.640625 22.742188 -2.8125 22.265625 -4.40625 L 21.640625 -4.46875 C 20.046875 -1.070312 17.070312 0.625 12.71875 0.625 Z M 15.3125 -5.5 C 17.207031 -5.5 18.722656 -6.132812 19.859375 -7.40625 C 20.992188 -8.675781 21.5625 -10.445312 21.5625 -12.71875 L 21.5625 -16.03125 L 21 -16.140625 C 20.5 -15.742188 19.847656 -15.410156 19.046875 -15.140625 C 18.253906 -14.878906 17.109375 -14.625 15.609375 -14.375 C 13.835938 -14.070312 12.5625 -13.5625 11.78125 -12.84375 C 11 -12.125 10.609375 -11.101562 10.609375 -9.78125 C 10.609375 -8.382812 11.019531 -7.320312 11.84375 -6.59375 C 12.675781 -5.863281 13.832031 -5.5 15.3125 -5.5 Z M 15.3125 -5.5 "/></g></g></g><g fill="#244367" fill-opacity="1"><g transform="translate(548.18724, 95.477513)"><g><path d="M 22.5 -7.78125 L 24.640625 -1.71875 C 23.742188 -0.988281 22.625 -0.414062 21.28125 0 C 19.945312 0.414062 18.429688 0.625 16.734375 0.625 C 13.203125 0.625 10.519531 -0.332031 8.6875 -2.25 C 6.851562 -4.175781 5.9375 -6.972656 5.9375 -10.640625 L 5.9375 -26.140625 L 0.96875 -26.140625 L 0.96875 -32.640625 L 5.9375 -32.640625 L 5.9375 -39 L 14.140625 -40.328125 L 14.140625 -32.640625 L 23.390625 -32.640625 L 23.390625 -26.140625 L 14.140625 -26.140625 L 14.140625 -11.234375 C 14.140625 -9.617188 14.472656 -8.441406 15.140625 -7.703125 C 15.804688 -6.960938 16.78125 -6.59375 18.0625 -6.59375 C 19.519531 -6.59375 20.796875 -6.988281 21.890625 -7.78125 Z M 22.5 -7.78125 "/></g></g></g><g fill="#244367" fill-opacity="1"><g transform="translate(573.520396, 95.477513)"><g><path d="M 12.71875 0.625 C 10.625 0.625 8.804688 0.238281 7.265625 -0.53125 C 5.734375 -1.300781 4.550781 -2.429688 3.71875 -3.921875 C 2.894531 -5.410156 2.484375 -7.195312 2.484375 -9.28125 C 2.484375 -11.21875 2.894531 -12.835938 3.71875 -14.140625 C 4.550781 -15.453125 5.832031 -16.523438 7.5625 -17.359375 C 9.300781 -18.203125 11.570312 -18.851562 14.375 -19.3125 C 16.320312 -19.625 17.800781 -19.96875 18.8125 -20.34375 C 19.832031 -20.71875 20.519531 -21.140625 20.875 -21.609375 C 21.226562 -22.085938 21.40625 -22.691406 21.40625 -23.421875 C 21.40625 -24.460938 21.039062 -25.257812 20.3125 -25.8125 C 19.582031 -26.363281 18.367188 -26.640625 16.671875 -26.640625 C 14.859375 -26.640625 13.132812 -26.234375 11.5 -25.421875 C 9.863281 -24.617188 8.445312 -23.554688 7.25 -22.234375 L 6.65625 -22.234375 L 3.21875 -27.40625 C 4.875 -29.238281 6.894531 -30.664062 9.28125 -31.6875 C 11.664062 -32.71875 14.269531 -33.234375 17.09375 -33.234375 C 21.40625 -33.234375 24.523438 -32.316406 26.453125 -30.484375 C 28.390625 -28.648438 29.359375 -26.050781 29.359375 -22.6875 L 29.359375 -8.515625 C 29.359375 -7.054688 30 -6.328125 31.28125 -6.328125 C 31.78125 -6.328125 32.265625 -6.414062 32.734375 -6.59375 L 33.15625 -6.46875 L 33.734375 -0.765625 C 33.285156 -0.472656 32.65625 -0.234375 31.84375 -0.046875 C 31.039062 0.140625 30.15625 0.234375 29.1875 0.234375 C 27.238281 0.234375 25.71875 -0.140625 24.625 -0.890625 C 23.53125 -1.640625 22.742188 -2.8125 22.265625 -4.40625 L 21.640625 -4.46875 C 20.046875 -1.070312 17.070312 0.625 12.71875 0.625 Z M 15.3125 -5.5 C 17.207031 -5.5 18.722656 -6.132812 19.859375 -7.40625 C 20.992188 -8.675781 21.5625 -10.445312 21.5625 -12.71875 L 21.5625 -16.03125 L 21 -16.140625 C 20.5 -15.742188 19.847656 -15.410156 19.046875 -15.140625 C 18.253906 -14.878906 17.109375 -14.625 15.609375 -14.375 C 13.835938 -14.070312 12.5625 -13.5625 11.78125 -12.84375 C 11 -12.125 10.609375 -11.101562 10.609375 -9.78125 C 10.609375 -8.382812 11.019531 -7.320312 11.84375 -6.59375 C 12.675781 -5.863281 13.832031 -5.5 15.3125 -5.5 Z M 15.3125 -5.5 "/></g></g></g><g fill="#244367" fill-opacity="1"><g transform="translate(607.898964, 95.477513)"><g/></g></g><g fill="#244367" fill-opacity="1"><g transform="translate(622.176556, 95.477513)"><g><path d="M 41.484375 0 L 32.5 0 L 29.25 -9.96875 L 12.6875 -9.96875 L 9.4375 0 L 0.65625 0 L 15.578125 -43.234375 L 26.5625 -43.234375 Z M 20.546875 -34.21875 L 15 -17.15625 L 26.875 -17.15625 L 21.296875 -34.21875 Z M 20.546875 -34.21875 "/></g></g></g><g fill="#244367" fill-opacity="1"><g transform="translate(664.29994, 95.477513)"><g><path d="M 4.703125 0 L 4.703125 -32.625 L 12.5625 -32.625 L 12.5625 -27.828125 L 13.1875 -27.671875 C 15.21875 -31.378906 18.507812 -33.234375 23.0625 -33.234375 C 26.832031 -33.234375 29.597656 -32.207031 31.359375 -30.15625 C 33.117188 -28.113281 34 -25.128906 34 -21.203125 L 34 0 L 25.8125 0 L 25.8125 -20.203125 C 25.8125 -22.367188 25.378906 -23.925781 24.515625 -24.875 C 23.648438 -25.832031 22.257812 -26.3125 20.34375 -26.3125 C 18 -26.3125 16.171875 -25.550781 14.859375 -24.03125 C 13.546875 -22.519531 12.890625 -20.140625 12.890625 -16.890625 L 12.890625 0 Z M 4.703125 0 "/></g></g></g><g fill="#244367" fill-opacity="1"><g transform="translate(702.491795, 95.477513)"><g><path d="M 12.71875 0.625 C 10.625 0.625 8.804688 0.238281 7.265625 -0.53125 C 5.734375 -1.300781 4.550781 -2.429688 3.71875 -3.921875 C 2.894531 -5.410156 2.484375 -7.195312 2.484375 -9.28125 C 2.484375 -11.21875 2.894531 -12.835938 3.71875 -14.140625 C 4.550781 -15.453125 5.832031 -16.523438 7.5625 -17.359375 C 9.300781 -18.203125 11.570312 -18.851562 14.375 -19.3125 C 16.320312 -19.625 17.800781 -19.96875 18.8125 -20.34375 C 19.832031 -20.71875 20.519531 -21.140625 20.875 -21.609375 C 21.226562 -22.085938 21.40625 -22.691406 21.40625 -23.421875 C 21.40625 -24.460938 21.039062 -25.257812 20.3125 -25.8125 C 19.582031 -26.363281 18.367188 -26.640625 16.671875 -26.640625 C 14.859375 -26.640625 13.132812 -26.234375 11.5 -25.421875 C 9.863281 -24.617188 8.445312 -23.554688 7.25 -22.234375 L 6.65625 -22.234375 L 3.21875 -27.40625 C 4.875 -29.238281 6.894531 -30.664062 9.28125 -31.6875 C 11.664062 -32.71875 14.269531 -33.234375 17.09375 -33.234375 C 21.40625 -33.234375 24.523438 -32.316406 26.453125 -30.484375 C 28.390625 -28.648438 29.359375 -26.050781 29.359375 -22.6875 L 29.359375 -8.515625 C 29.359375 -7.054688 30 -6.328125 31.28125 -6.328125 C 31.78125 -6.328125 32.265625 -6.414062 32.734375 -6.59375 L 33.15625 -6.46875 L 33.734375 -0.765625 C 33.285156 -0.472656 32.65625 -0.234375 31.84375 -0.046875 C 31.039062 0.140625 30.15625 0.234375 29.1875 0.234375 C 27.238281 0.234375 25.71875 -0.140625 24.625 -0.890625 C 23.53125 -1.640625 22.742188 -2.8125 22.265625 -4.40625 L 21.640625 -4.46875 C 20.046875 -1.070312 17.070312 0.625 12.71875 0.625 Z M 15.3125 -5.5 C 17.207031 -5.5 18.722656 -6.132812 19.859375 -7.40625 C 20.992188 -8.675781 21.5625 -10.445312 21.5625 -12.71875 L 21.5625 -16.03125 L 21 -16.140625 C 20.5 -15.742188 19.847656 -15.410156 19.046875 -15.140625 C 18.253906 -14.878906 17.109375 -14.625 15.609375 -14.375 C 13.835938 -14.070312 12.5625 -13.5625 11.78125 -12.84375 C 11 -12.125 10.609375 -11.101562 10.609375 -9.78125 C 10.609375 -8.382812 11.019531 -7.320312 11.84375 -6.59375 C 12.675781 -5.863281 13.832031 -5.5 15.3125 -5.5 Z M 15.3125 -5.5 "/></g></g></g><g fill="#244367" fill-opacity="1"><g transform="translate(736.870364, 95.477513)"><g><path d="M 13.546875 0.625 C 10.609375 0.625 8.363281 -0.164062 6.8125 -1.75 C 5.269531 -3.34375 4.5 -5.753906 4.5 -8.984375 L 4.5 -45.71875 L 12.6875 -45.71875 L 12.6875 -9.3125 C 12.6875 -7.320312 13.515625 -6.328125 15.171875 -6.328125 C 15.640625 -6.328125 16.140625 -6.40625 16.671875 -6.5625 L 17.09375 -6.453125 L 17.828125 -0.140625 C 17.378906 0.0859375 16.78125 0.269531 16.03125 0.40625 C 15.28125 0.550781 14.453125 0.625 13.546875 0.625 Z M 13.546875 0.625 "/></g></g></g><g fill="#244367" fill-opacity="1"><g transform="translate(755.611595, 95.477513)"><g><path d="M 7.21875 13.84375 C 5.8125 13.84375 4.539062 13.734375 3.40625 13.515625 C 2.28125 13.296875 1.363281 13.007812 0.65625 12.65625 L 1.953125 6.03125 L 2.484375 5.859375 C 2.972656 6.109375 3.582031 6.3125 4.3125 6.46875 C 5.039062 6.632812 5.789062 6.71875 6.5625 6.71875 C 7.882812 6.71875 8.984375 6.539062 9.859375 6.1875 C 10.734375 5.84375 11.476562 5.269531 12.09375 4.46875 C 12.707031 3.675781 13.25 2.570312 13.71875 1.15625 L 0.703125 -32.625 L 9.28125 -32.625 L 17.390625 -9.9375 L 18.09375 -9.9375 L 26 -32.625 L 34.328125 -32.625 L 21.234375 2.046875 C 20.191406 4.835938 19.039062 7.085938 17.78125 8.796875 C 16.53125 10.503906 15.050781 11.769531 13.34375 12.59375 C 11.644531 13.425781 9.601562 13.84375 7.21875 13.84375 Z M 7.21875 13.84375 "/></g></g></g><g fill="#244367" fill-opacity="1"><g transform="translate(790.610943, 95.477513)"><g><path d="M 15.265625 0.625 C 13.035156 0.625 10.992188 0.363281 9.140625 -0.15625 C 7.285156 -0.6875 5.703125 -1.410156 4.390625 -2.328125 C 3.078125 -3.242188 2.109375 -4.289062 1.484375 -5.46875 L 6.03125 -10.375 L 6.65625 -10.375 C 7.738281 -8.914062 9.019531 -7.820312 10.5 -7.09375 C 11.976562 -6.363281 13.582031 -6 15.3125 -6 C 16.914062 -6 18.117188 -6.285156 18.921875 -6.859375 C 19.734375 -7.429688 20.140625 -8.25 20.140625 -9.3125 C 20.140625 -10.144531 19.847656 -10.84375 19.265625 -11.40625 C 18.679688 -11.96875 17.738281 -12.40625 16.4375 -12.71875 L 12.125 -13.75 C 8.894531 -14.519531 6.535156 -15.695312 5.046875 -17.28125 C 3.554688 -18.875 2.8125 -20.890625 2.8125 -23.328125 C 2.8125 -25.359375 3.328125 -27.125 4.359375 -28.625 C 5.398438 -30.125 6.859375 -31.265625 8.734375 -32.046875 C 10.617188 -32.835938 12.8125 -33.234375 15.3125 -33.234375 C 18.25 -33.234375 20.679688 -32.804688 22.609375 -31.953125 C 24.546875 -31.109375 26.054688 -29.976562 27.140625 -28.5625 L 22.765625 -23.828125 L 22.171875 -23.828125 C 21.265625 -24.859375 20.242188 -25.609375 19.109375 -26.078125 C 17.984375 -26.554688 16.71875 -26.796875 15.3125 -26.796875 C 12.082031 -26.796875 10.46875 -25.789062 10.46875 -23.78125 C 10.46875 -22.925781 10.765625 -22.234375 11.359375 -21.703125 C 11.960938 -21.171875 13.023438 -20.738281 14.546875 -20.40625 L 18.578125 -19.515625 C 21.878906 -18.804688 24.296875 -17.664062 25.828125 -16.09375 C 27.359375 -14.53125 28.125 -12.425781 28.125 -9.78125 C 28.125 -7.71875 27.609375 -5.894531 26.578125 -4.3125 C 25.554688 -2.738281 24.078125 -1.519531 22.140625 -0.65625 C 20.210938 0.195312 17.921875 0.625 15.265625 0.625 Z M 15.265625 0.625 "/></g></g></g><g fill="#244367" fill-opacity="1"><g transform="translate(820.67374, 95.477513)"><g><path d="M 8.78125 -36.515625 C 7.300781 -36.515625 6.097656 -36.960938 5.171875 -37.859375 C 4.242188 -38.765625 3.78125 -39.925781 3.78125 -41.34375 C 3.78125 -42.738281 4.242188 -43.882812 5.171875 -44.78125 C 6.097656 -45.675781 7.300781 -46.125 8.78125 -46.125 C 9.769531 -46.125 10.644531 -45.914062 11.40625 -45.5 C 12.175781 -45.09375 12.773438 -44.53125 13.203125 -43.8125 C 13.628906 -43.09375 13.84375 -42.269531 13.84375 -41.34375 C 13.84375 -40.414062 13.628906 -39.585938 13.203125 -38.859375 C 12.773438 -38.128906 12.175781 -37.554688 11.40625 -37.140625 C 10.644531 -36.722656 9.769531 -36.515625 8.78125 -36.515625 Z M 4.703125 0 L 4.703125 -32.625 L 12.890625 -32.625 L 12.890625 0 Z M 4.703125 0 "/></g></g></g><g fill="#244367" fill-opacity="1"><g transform="translate(838.232508, 95.477513)"><g><path d="M 15.265625 0.625 C 13.035156 0.625 10.992188 0.363281 9.140625 -0.15625 C 7.285156 -0.6875 5.703125 -1.410156 4.390625 -2.328125 C 3.078125 -3.242188 2.109375 -4.289062 1.484375 -5.46875 L 6.03125 -10.375 L 6.65625 -10.375 C 7.738281 -8.914062 9.019531 -7.820312 10.5 -7.09375 C 11.976562 -6.363281 13.582031 -6 15.3125 -6 C 16.914062 -6 18.117188 -6.285156 18.921875 -6.859375 C 19.734375 -7.429688 20.140625 -8.25 20.140625 -9.3125 C 20.140625 -10.144531 19.847656 -10.84375 19.265625 -11.40625 C 18.679688 -11.96875 17.738281 -12.40625 16.4375 -12.71875 L 12.125 -13.75 C 8.894531 -14.519531 6.535156 -15.695312 5.046875 -17.28125 C 3.554688 -18.875 2.8125 -20.890625 2.8125 -23.328125 C 2.8125 -25.359375 3.328125 -27.125 4.359375 -28.625 C 5.398438 -30.125 6.859375 -31.265625 8.734375 -32.046875 C 10.617188 -32.835938 12.8125 -33.234375 15.3125 -33.234375 C 18.25 -33.234375 20.679688 -32.804688 22.609375 -31.953125 C 24.546875 -31.109375 26.054688 -29.976562 27.140625 -28.5625 L 22.765625 -23.828125 L 22.171875 -23.828125 C 21.265625 -24.859375 20.242188 -25.609375 19.109375 -26.078125 C 17.984375 -26.554688 16.71875 -26.796875 15.3125 -26.796875 C 12.082031 -26.796875 10.46875 -25.789062 10.46875 -23.78125 C 10.46875 -22.925781 10.765625 -22.234375 11.359375 -21.703125 C 11.960938 -21.171875 13.023438 -20.738281 14.546875 -20.40625 L 18.578125 -19.515625 C 21.878906 -18.804688 24.296875 -17.664062 25.828125 -16.09375 C 27.359375 -14.53125 28.125 -12.425781 28.125 -9.78125 C 28.125 -7.71875 27.609375 -5.894531 26.578125 -4.3125 C 25.554688 -2.738281 24.078125 -1.519531 22.140625 -0.65625 C 20.210938 0.195312 17.921875 0.625 15.265625 0.625 Z M 15.265625 0.625 "/></g></g></g><g fill="#244367" fill-opacity="1"><g transform="translate(868.295304, 95.477513)"><g/></g></g><g fill="#244367" fill-opacity="1"><g transform="translate(882.57295, 95.477513)"><g><path d="M 12.71875 0.625 C 10.625 0.625 8.804688 0.238281 7.265625 -0.53125 C 5.734375 -1.300781 4.550781 -2.429688 3.71875 -3.921875 C 2.894531 -5.410156 2.484375 -7.195312 2.484375 -9.28125 C 2.484375 -11.21875 2.894531 -12.835938 3.71875 -14.140625 C 4.550781 -15.453125 5.832031 -16.523438 7.5625 -17.359375 C 9.300781 -18.203125 11.570312 -18.851562 14.375 -19.3125 C 16.320312 -19.625 17.800781 -19.96875 18.8125 -20.34375 C 19.832031 -20.71875 20.519531 -21.140625 20.875 -21.609375 C 21.226562 -22.085938 21.40625 -22.691406 21.40625 -23.421875 C 21.40625 -24.460938 21.039062 -25.257812 20.3125 -25.8125 C 19.582031 -26.363281 18.367188 -26.640625 16.671875 -26.640625 C 14.859375 -26.640625 13.132812 -26.234375 11.5 -25.421875 C 9.863281 -24.617188 8.445312 -23.554688 7.25 -22.234375 L 6.65625 -22.234375 L 3.21875 -27.40625 C 4.875 -29.238281 6.894531 -30.664062 9.28125 -31.6875 C 11.664062 -32.71875 14.269531 -33.234375 17.09375 -33.234375 C 21.40625 -33.234375 24.523438 -32.316406 26.453125 -30.484375 C 28.390625 -28.648438 29.359375 -26.050781 29.359375 -22.6875 L 29.359375 -8.515625 C 29.359375 -7.054688 30 -6.328125 31.28125 -6.328125 C 31.78125 -6.328125 32.265625 -6.414062 32.734375 -6.59375 L 33.15625 -6.46875 L 33.734375 -0.765625 C 33.285156 -0.472656 32.65625 -0.234375 31.84375 -0.046875 C 31.039062 0.140625 30.15625 0.234375 29.1875 0.234375 C 27.238281 0.234375 25.71875 -0.140625 24.625 -0.890625 C 23.53125 -1.640625 22.742188 -2.8125 22.265625 -4.40625 L 21.640625 -4.46875 C 20.046875 -1.070312 17.070312 0.625 12.71875 0.625 Z M 15.3125 -5.5 C 17.207031 -5.5 18.722656 -6.132812 19.859375 -7.40625 C 20.992188 -8.675781 21.5625 -10.445312 21.5625 -12.71875 L 21.5625 -16.03125 L 21 -16.140625 C 20.5 -15.742188 19.847656 -15.410156 19.046875 -15.140625 C 18.253906 -14.878906 17.109375 -14.625 15.609375 -14.375 C 13.835938 -14.070312 12.5625 -13.5625 11.78125 -12.84375 C 11 -12.125 10.609375 -11.101562 10.609375 -9.78125 C 10.609375 -8.382812 11.019531 -7.320312 11.84375 -6.59375 C 12.675781 -5.863281 13.832031 -5.5 15.3125 -5.5 Z M 15.3125 -5.5 "/></g></g></g><g fill="#244367" fill-opacity="1"><g transform="translate(916.951519, 95.477513)"><g><path d="M 4.703125 0 L 4.703125 -32.625 L 12.5625 -32.625 L 12.5625 -27.828125 L 13.1875 -27.671875 C 15.21875 -31.378906 18.507812 -33.234375 23.0625 -33.234375 C 26.832031 -33.234375 29.597656 -32.207031 31.359375 -30.15625 C 33.117188 -28.113281 34 -25.128906 34 -21.203125 L 34 0 L 25.8125 0 L 25.8125 -20.203125 C 25.8125 -22.367188 25.378906 -23.925781 24.515625 -24.875 C 23.648438 -25.832031 22.257812 -26.3125 20.34375 -26.3125 C 18 -26.3125 16.171875 -25.550781 14.859375 -24.03125 C 13.546875 -22.519531 12.890625 -20.140625 12.890625 -16.890625 L 12.890625 0 Z M 4.703125 0 "/></g></g></g><g fill="#244367" fill-opacity="1"><g transform="translate(955.143374, 95.477513)"><g><path d="M 16.109375 0.625 C 13.535156 0.625 11.253906 0 9.265625 -1.25 C 7.285156 -2.507812 5.734375 -4.40625 4.609375 -6.9375 C 3.484375 -9.46875 2.921875 -12.585938 2.921875 -16.296875 C 2.921875 -20.023438 3.5 -23.15625 4.65625 -25.6875 C 5.8125 -28.21875 7.410156 -30.109375 9.453125 -31.359375 C 11.492188 -32.609375 13.851562 -33.234375 16.53125 -33.234375 C 18.5625 -33.234375 20.320312 -32.882812 21.8125 -32.1875 C 23.300781 -31.488281 24.554688 -30.398438 25.578125 -28.921875 L 26.203125 -29.0625 L 26.203125 -45.71875 L 34.390625 -45.71875 L 34.390625 0 L 26.203125 0 L 26.203125 -4.234375 L 25.578125 -4.34375 C 24.671875 -2.8125 23.425781 -1.597656 21.84375 -0.703125 C 20.269531 0.179688 18.359375 0.625 16.109375 0.625 Z M 18.78125 -6.328125 C 21.082031 -6.328125 22.90625 -7.148438 24.25 -8.796875 C 25.59375 -10.441406 26.265625 -12.941406 26.265625 -16.296875 C 26.265625 -19.648438 25.59375 -22.15625 24.25 -23.8125 C 22.90625 -25.46875 21.082031 -26.296875 18.78125 -26.296875 C 16.375 -26.296875 14.535156 -25.488281 13.265625 -23.875 C 11.992188 -22.269531 11.359375 -19.742188 11.359375 -16.296875 C 11.359375 -12.867188 11.992188 -10.347656 13.265625 -8.734375 C 14.535156 -7.128906 16.375 -6.328125 18.78125 -6.328125 Z M 18.78125 -6.328125 "/></g></g></g><g fill="#244367" fill-opacity="1"><g transform="translate(994.22201, 95.477513)"><g/></g></g><g fill="#244367" fill-opacity="1"><g transform="translate(1008.499602, 95.477513)"><g><path d="M 19.15625 0.625 C 16.164062 0.625 13.5 0.253906 11.15625 -0.484375 C 8.820312 -1.222656 6.875 -2.191406 5.3125 -3.390625 C 3.757812 -4.597656 2.570312 -5.921875 1.75 -7.359375 L 6.453125 -13.09375 L 7.1875 -13.09375 C 8.488281 -11.164062 10.140625 -9.628906 12.140625 -8.484375 C 14.140625 -7.335938 16.476562 -6.765625 19.15625 -6.765625 C 21.445312 -6.765625 23.171875 -7.25 24.328125 -8.21875 C 25.492188 -9.1875 26.078125 -10.519531 26.078125 -12.21875 C 26.078125 -13.238281 25.890625 -14.09375 25.515625 -14.78125 C 25.140625 -15.476562 24.519531 -16.070312 23.65625 -16.5625 C 22.789062 -17.050781 21.617188 -17.472656 20.140625 -17.828125 L 14.578125 -19.109375 C 10.691406 -19.992188 7.796875 -21.460938 5.890625 -23.515625 C 3.992188 -25.578125 3.046875 -28.253906 3.046875 -31.546875 C 3.046875 -33.992188 3.65625 -36.144531 4.875 -38 C 6.101562 -39.851562 7.882812 -41.289062 10.21875 -42.3125 C 12.550781 -43.34375 15.34375 -43.859375 18.59375 -43.859375 C 21.925781 -43.859375 24.78125 -43.414062 27.15625 -42.53125 C 29.53125 -41.65625 31.535156 -40.3125 33.171875 -38.5 L 28.953125 -32.703125 L 28.21875 -32.703125 C 26.988281 -33.984375 25.582031 -34.941406 24 -35.578125 C 22.425781 -36.222656 20.625 -36.546875 18.59375 -36.546875 C 16.25 -36.546875 14.46875 -36.128906 13.25 -35.296875 C 12.03125 -34.472656 11.421875 -33.332031 11.421875 -31.875 C 11.421875 -30.519531 11.847656 -29.4375 12.703125 -28.625 C 13.554688 -27.8125 15.039062 -27.179688 17.15625 -26.734375 L 22.828125 -25.546875 C 27.023438 -24.660156 30.070312 -23.15625 31.96875 -21.03125 C 33.863281 -18.914062 34.8125 -16.15625 34.8125 -12.75 C 34.8125 -10.039062 34.226562 -7.6875 33.0625 -5.6875 C 31.894531 -3.6875 30.140625 -2.132812 27.796875 -1.03125 C 25.453125 0.0703125 22.570312 0.625 19.15625 0.625 Z M 19.15625 0.625 "/></g></g></g><g fill="#244367" fill-opacity="1"><g transform="translate(1045.627288, 95.477513)"><g><path d="M 22.5 -7.78125 L 24.640625 -1.71875 C 23.742188 -0.988281 22.625 -0.414062 21.28125 0 C 19.945312 0.414062 18.429688 0.625 16.734375 0.625 C 13.203125 0.625 10.519531 -0.332031 8.6875 -2.25 C 6.851562 -4.175781 5.9375 -6.972656 5.9375 -10.640625 L 5.9375 -26.140625 L 0.96875 -26.140625 L 0.96875 -32.640625 L 5.9375 -32.640625 L 5.9375 -39 L 14.140625 -40.328125 L 14.140625 -32.640625 L 23.390625 -32.640625 L 23.390625 -26.140625 L 14.140625 -26.140625 L 14.140625 -11.234375 C 14.140625 -9.617188 14.472656 -8.441406 15.140625 -7.703125 C 15.804688 -6.960938 16.78125 -6.59375 18.0625 -6.59375 C 19.519531 -6.59375 20.796875 -6.988281 21.890625 -7.78125 Z M 22.5 -7.78125 "/></g></g></g><g fill="#244367" fill-opacity="1"><g transform="translate(1070.960498, 95.477513)"><g><path d="M 12.71875 0.625 C 10.625 0.625 8.804688 0.238281 7.265625 -0.53125 C 5.734375 -1.300781 4.550781 -2.429688 3.71875 -3.921875 C 2.894531 -5.410156 2.484375 -7.195312 2.484375 -9.28125 C 2.484375 -11.21875 2.894531 -12.835938 3.71875 -14.140625 C 4.550781 -15.453125 5.832031 -16.523438 7.5625 -17.359375 C 9.300781 -18.203125 11.570312 -18.851562 14.375 -19.3125 C 16.320312 -19.625 17.800781 -19.96875 18.8125 -20.34375 C 19.832031 -20.71875 20.519531 -21.140625 20.875 -21.609375 C 21.226562 -22.085938 21.40625 -22.691406 21.40625 -23.421875 C 21.40625 -24.460938 21.039062 -25.257812 20.3125 -25.8125 C 19.582031 -26.363281 18.367188 -26.640625 16.671875 -26.640625 C 14.859375 -26.640625 13.132812 -26.234375 11.5 -25.421875 C 9.863281 -24.617188 8.445312 -23.554688 7.25 -22.234375 L 6.65625 -22.234375 L 3.21875 -27.40625 C 4.875 -29.238281 6.894531 -30.664062 9.28125 -31.6875 C 11.664062 -32.71875 14.269531 -33.234375 17.09375 -33.234375 C 21.40625 -33.234375 24.523438 -32.316406 26.453125 -30.484375 C 28.390625 -28.648438 29.359375 -26.050781 29.359375 -22.6875 L 29.359375 -8.515625 C 29.359375 -7.054688 30 -6.328125 31.28125 -6.328125 C 31.78125 -6.328125 32.265625 -6.414062 32.734375 -6.59375 L 33.15625 -6.46875 L 33.734375 -0.765625 C 33.285156 -0.472656 32.65625 -0.234375 31.84375 -0.046875 C 31.039062 0.140625 30.15625 0.234375 29.1875 0.234375 C 27.238281 0.234375 25.71875 -0.140625 24.625 -0.890625 C 23.53125 -1.640625 22.742188 -2.8125 22.265625 -4.40625 L 21.640625 -4.46875 C 20.046875 -1.070312 17.070312 0.625 12.71875 0.625 Z M 15.3125 -5.5 C 17.207031 -5.5 18.722656 -6.132812 19.859375 -7.40625 C 20.992188 -8.675781 21.5625 -10.445312 21.5625 -12.71875 L 21.5625 -16.03125 L 21 -16.140625 C 20.5 -15.742188 19.847656 -15.410156 19.046875 -15.140625 C 18.253906 -14.878906 17.109375 -14.625 15.609375 -14.375 C 13.835938 -14.070312 12.5625 -13.5625 11.78125 -12.84375 C 11 -12.125 10.609375 -11.101562 10.609375 -9.78125 C 10.609375 -8.382812 11.019531 -7.320312 11.84375 -6.59375 C 12.675781 -5.863281 13.832031 -5.5 15.3125 -5.5 Z M 15.3125 -5.5 "/></g></g></g><g fill="#244367" fill-opacity="1"><g transform="translate(1105.339066, 95.477513)"><g><path d="M 22.5 -7.78125 L 24.640625 -1.71875 C 23.742188 -0.988281 22.625 -0.414062 21.28125 0 C 19.945312 0.414062 18.429688 0.625 16.734375 0.625 C 13.203125 0.625 10.519531 -0.332031 8.6875 -2.25 C 6.851562 -4.175781 5.9375 -6.972656 5.9375 -10.640625 L 5.9375 -26.140625 L 0.96875 -26.140625 L 0.96875 -32.640625 L 5.9375 -32.640625 L 5.9375 -39 L 14.140625 -40.328125 L 14.140625 -32.640625 L 23.390625 -32.640625 L 23.390625 -26.140625 L 14.140625 -26.140625 L 14.140625 -11.234375 C 14.140625 -9.617188 14.472656 -8.441406 15.140625 -7.703125 C 15.804688 -6.960938 16.78125 -6.59375 18.0625 -6.59375 C 19.519531 -6.59375 20.796875 -6.988281 21.890625 -7.78125 Z M 22.5 -7.78125 "/></g></g></g><g fill="#244367" fill-opacity="1"><g transform="translate(1130.672276, 95.477513)"><g><path d="M 8.78125 -36.515625 C 7.300781 -36.515625 6.097656 -36.960938 5.171875 -37.859375 C 4.242188 -38.765625 3.78125 -39.925781 3.78125 -41.34375 C 3.78125 -42.738281 4.242188 -43.882812 5.171875 -44.78125 C 6.097656 -45.675781 7.300781 -46.125 8.78125 -46.125 C 9.769531 -46.125 10.644531 -45.914062 11.40625 -45.5 C 12.175781 -45.09375 12.773438 -44.53125 13.203125 -43.8125 C 13.628906 -43.09375 13.84375 -42.269531 13.84375 -41.34375 C 13.84375 -40.414062 13.628906 -39.585938 13.203125 -38.859375 C 12.773438 -38.128906 12.175781 -37.554688 11.40625 -37.140625 C 10.644531 -36.722656 9.769531 -36.515625 8.78125 -36.515625 Z M 4.703125 0 L 4.703125 -32.625 L 12.890625 -32.625 L 12.890625 0 Z M 4.703125 0 "/></g></g></g><g fill="#244367" fill-opacity="1"><g transform="translate(1148.231097, 95.477513)"><g><path d="M 15.265625 0.625 C 13.035156 0.625 10.992188 0.363281 9.140625 -0.15625 C 7.285156 -0.6875 5.703125 -1.410156 4.390625 -2.328125 C 3.078125 -3.242188 2.109375 -4.289062 1.484375 -5.46875 L 6.03125 -10.375 L 6.65625 -10.375 C 7.738281 -8.914062 9.019531 -7.820312 10.5 -7.09375 C 11.976562 -6.363281 13.582031 -6 15.3125 -6 C 16.914062 -6 18.117188 -6.285156 18.921875 -6.859375 C 19.734375 -7.429688 20.140625 -8.25 20.140625 -9.3125 C 20.140625 -10.144531 19.847656 -10.84375 19.265625 -11.40625 C 18.679688 -11.96875 17.738281 -12.40625 16.4375 -12.71875 L 12.125 -13.75 C 8.894531 -14.519531 6.535156 -15.695312 5.046875 -17.28125 C 3.554688 -18.875 2.8125 -20.890625 2.8125 -23.328125 C 2.8125 -25.359375 3.328125 -27.125 4.359375 -28.625 C 5.398438 -30.125 6.859375 -31.265625 8.734375 -32.046875 C 10.617188 -32.835938 12.8125 -33.234375 15.3125 -33.234375 C 18.25 -33.234375 20.679688 -32.804688 22.609375 -31.953125 C 24.546875 -31.109375 26.054688 -29.976562 27.140625 -28.5625 L 22.765625 -23.828125 L 22.171875 -23.828125 C 21.265625 -24.859375 20.242188 -25.609375 19.109375 -26.078125 C 17.984375 -26.554688 16.71875 -26.796875 15.3125 -26.796875 C 12.082031 -26.796875 10.46875 -25.789062 10.46875 -23.78125 C 10.46875 -22.925781 10.765625 -22.234375 11.359375 -21.703125 C 11.960938 -21.171875 13.023438 -20.738281 14.546875 -20.40625 L 18.578125 -19.515625 C 21.878906 -18.804688 24.296875 -17.664062 25.828125 -16.09375 C 27.359375 -14.53125 28.125 -12.425781 28.125 -9.78125 C 28.125 -7.71875 27.609375 -5.894531 26.578125 -4.3125 C 25.554688 -2.738281 24.078125 -1.519531 22.140625 -0.65625 C 20.210938 0.195312 17.921875 0.625 15.265625 0.625 Z M 15.265625 0.625 "/></g></g></g><g fill="#244367" fill-opacity="1"><g transform="translate(1178.293841, 95.477513)"><g><path d="M 22.5 -7.78125 L 24.640625 -1.71875 C 23.742188 -0.988281 22.625 -0.414062 21.28125 0 C 19.945312 0.414062 18.429688 0.625 16.734375 0.625 C 13.203125 0.625 10.519531 -0.332031 8.6875 -2.25 C 6.851562 -4.175781 5.9375 -6.972656 5.9375 -10.640625 L 5.9375 -26.140625 L 0.96875 -26.140625 L 0.96875 -32.640625 L 5.9375 -32.640625 L 5.9375 -39 L 14.140625 -40.328125 L 14.140625 -32.640625 L 23.390625 -32.640625 L 23.390625 -26.140625 L 14.140625 -26.140625 L 14.140625 -11.234375 C 14.140625 -9.617188 14.472656 -8.441406 15.140625 -7.703125 C 15.804688 -6.960938 16.78125 -6.59375 18.0625 -6.59375 C 19.519531 -6.59375 20.796875 -6.988281 21.890625 -7.78125 Z M 22.5 -7.78125 "/></g></g></g><g fill="#244367" fill-opacity="1"><g transform="translate(1203.627051, 95.477513)"><g><path d="M 8.78125 -36.515625 C 7.300781 -36.515625 6.097656 -36.960938 5.171875 -37.859375 C 4.242188 -38.765625 3.78125 -39.925781 3.78125 -41.34375 C 3.78125 -42.738281 4.242188 -43.882812 5.171875 -44.78125 C 6.097656 -45.675781 7.300781 -46.125 8.78125 -46.125 C 9.769531 -46.125 10.644531 -45.914062 11.40625 -45.5 C 12.175781 -45.09375 12.773438 -44.53125 13.203125 -43.8125 C 13.628906 -43.09375 13.84375 -42.269531 13.84375 -41.34375 C 13.84375 -40.414062 13.628906 -39.585938 13.203125 -38.859375 C 12.773438 -38.128906 12.175781 -37.554688 11.40625 -37.140625 C 10.644531 -36.722656 9.769531 -36.515625 8.78125 -36.515625 Z M 4.703125 0 L 4.703125 -32.625 L 12.890625 -32.625 L 12.890625 0 Z M 4.703125 0 "/></g></g></g><g fill="#244367" fill-opacity="1"><g transform="translate(1221.185872, 95.477513)"><g><path d="M 19.015625 0.625 C 15.859375 0.625 13.066406 -0.03125 10.640625 -1.34375 C 8.222656 -2.65625 6.332031 -4.582031 4.96875 -7.125 C 3.601562 -9.664062 2.921875 -12.722656 2.921875 -16.296875 C 2.921875 -19.878906 3.601562 -22.941406 4.96875 -25.484375 C 6.332031 -28.035156 8.210938 -29.960938 10.609375 -31.265625 C 13.015625 -32.578125 15.765625 -33.234375 18.859375 -33.234375 C 25.742188 -33.234375 30.148438 -30.738281 32.078125 -25.75 L 26.46875 -21.734375 L 25.84375 -21.734375 C 25.175781 -23.273438 24.300781 -24.421875 23.21875 -25.171875 C 22.144531 -25.921875 20.691406 -26.296875 18.859375 -26.296875 C 16.492188 -26.296875 14.648438 -25.472656 13.328125 -23.828125 C 12.015625 -22.191406 11.359375 -19.679688 11.359375 -16.296875 C 11.359375 -12.941406 12.023438 -10.441406 13.359375 -8.796875 C 14.703125 -7.148438 16.585938 -6.328125 19.015625 -6.328125 C 20.785156 -6.328125 22.285156 -6.804688 23.515625 -7.765625 C 24.753906 -8.722656 25.640625 -10.097656 26.171875 -11.890625 L 26.796875 -11.953125 L 32.625 -8.75 C 31.789062 -5.988281 30.253906 -3.734375 28.015625 -1.984375 C 25.773438 -0.242188 22.773438 0.625 19.015625 0.625 Z M 19.015625 0.625 "/></g></g></g><g fill="#244367" fill-opacity="1"><g transform="translate(1254.795956, 95.477513)"><g><path d="M 15.265625 0.625 C 13.035156 0.625 10.992188 0.363281 9.140625 -0.15625 C 7.285156 -0.6875 5.703125 -1.410156 4.390625 -2.328125 C 3.078125 -3.242188 2.109375 -4.289062 1.484375 -5.46875 L 6.03125 -10.375 L 6.65625 -10.375 C 7.738281 -8.914062 9.019531 -7.820312 10.5 -7.09375 C 11.976562 -6.363281 13.582031 -6 15.3125 -6 C 16.914062 -6 18.117188 -6.285156 18.921875 -6.859375 C 19.734375 -7.429688 20.140625 -8.25 20.140625 -9.3125 C 20.140625 -10.144531 19.847656 -10.84375 19.265625 -11.40625 C 18.679688 -11.96875 17.738281 -12.40625 16.4375 -12.71875 L 12.125 -13.75 C 8.894531 -14.519531 6.535156 -15.695312 5.046875 -17.28125 C 3.554688 -18.875 2.8125 -20.890625 2.8125 -23.328125 C 2.8125 -25.359375 3.328125 -27.125 4.359375 -28.625 C 5.398438 -30.125 6.859375 -31.265625 8.734375 -32.046875 C 10.617188 -32.835938 12.8125 -33.234375 15.3125 -33.234375 C 18.25 -33.234375 20.679688 -32.804688 22.609375 -31.953125 C 24.546875 -31.109375 26.054688 -29.976562 27.140625 -28.5625 L 22.765625 -23.828125 L 22.171875 -23.828125 C 21.265625 -24.859375 20.242188 -25.609375 19.109375 -26.078125 C 17.984375 -26.554688 16.71875 -26.796875 15.3125 -26.796875 C 12.082031 -26.796875 10.46875 -25.789062 10.46875 -23.78125 C 10.46875 -22.925781 10.765625 -22.234375 11.359375 -21.703125 C 11.960938 -21.171875 13.023438 -20.738281 14.546875 -20.40625 L 18.578125 -19.515625 C 21.878906 -18.804688 24.296875 -17.664062 25.828125 -16.09375 C 27.359375 -14.53125 28.125 -12.425781 28.125 -9.78125 C 28.125 -7.71875 27.609375 -5.894531 26.578125 -4.3125 C 25.554688 -2.738281 24.078125 -1.519531 22.140625 -0.65625 C 20.210938 0.195312 17.921875 0.625 15.265625 0.625 Z M 15.265625 0.625 "/></g></g></g><g fill="#244367" fill-opacity="1"><g transform="translate(1284.858807, 95.477513)"><g/></g></g><g fill="#244367" fill-opacity="1"><g transform="translate(1299.136399, 95.477513)"><g><path d="M 5.625 0 L 5.625 -43.234375 L 24.078125 -43.234375 C 26.734375 -43.234375 28.984375 -42.8125 30.828125 -41.96875 C 32.671875 -41.132812 34.066406 -39.941406 35.015625 -38.390625 C 35.960938 -36.847656 36.4375 -35.019531 36.4375 -32.90625 C 36.4375 -31 35.972656 -29.316406 35.046875 -27.859375 C 34.117188 -26.398438 32.785156 -25.226562 31.046875 -24.34375 L 31.046875 -23.71875 C 33.765625 -23.007812 35.863281 -21.71875 37.34375 -19.84375 C 38.820312 -17.96875 39.5625 -15.671875 39.5625 -12.953125 C 39.5625 -8.816406 38.3125 -5.625 35.8125 -3.375 C 33.320312 -1.125 29.625 0 24.71875 0 Z M 22.296875 -26 C 26.273438 -26 28.265625 -27.789062 28.265625 -31.375 C 28.265625 -33.207031 27.769531 -34.570312 26.78125 -35.46875 C 25.800781 -36.363281 24.304688 -36.8125 22.296875 -36.8125 L 14.171875 -36.8125 L 14.171875 -26 Z M 23.859375 -6.765625 C 28.578125 -6.765625 30.9375 -8.90625 30.9375 -13.1875 C 30.9375 -17.488281 28.578125 -19.640625 23.859375 -19.640625 L 14.171875 -19.640625 L 14.171875 -6.765625 Z M 23.859375 -6.765625 "/></g></g></g><g fill="#244367" fill-opacity="1"><g transform="translate(1341.407545, 95.477513)"><g><path d="M 8.34375 0.265625 C 7.289062 0.265625 6.363281 0.0546875 5.5625 -0.359375 C 4.769531 -0.785156 4.160156 -1.375 3.734375 -2.125 C 3.316406 -2.875 3.109375 -3.722656 3.109375 -4.671875 C 3.109375 -5.617188 3.316406 -6.46875 3.734375 -7.21875 C 4.160156 -7.96875 4.769531 -8.554688 5.5625 -8.984375 C 6.363281 -9.421875 7.289062 -9.640625 8.34375 -9.640625 C 9.40625 -9.640625 10.332031 -9.425781 11.125 -9 C 11.925781 -8.582031 12.539062 -8 12.96875 -7.25 C 13.394531 -6.5 13.609375 -5.648438 13.609375 -4.703125 C 13.609375 -3.265625 13.128906 -2.078125 12.171875 -1.140625 C 11.210938 -0.203125 9.9375 0.265625 8.34375 0.265625 Z M 8.34375 0.265625 "/></g></g></g><g fill="#244367" fill-opacity="1"><g transform="translate(1358.109105, 95.477513)"><g><path d="M 25.703125 0 L 15.375 0 L 0.765625 -43.234375 L 9.84375 -43.234375 L 20.34375 -11 L 21.078125 -11 L 31.4375 -43.234375 L 40.28125 -43.234375 Z M 25.703125 0 "/></g></g></g><g fill="#244367" fill-opacity="1"><g transform="translate(1399.1388, 95.477513)"><g><path d="M 8.34375 0.265625 C 7.289062 0.265625 6.363281 0.0546875 5.5625 -0.359375 C 4.769531 -0.785156 4.160156 -1.375 3.734375 -2.125 C 3.316406 -2.875 3.109375 -3.722656 3.109375 -4.671875 C 3.109375 -5.617188 3.316406 -6.46875 3.734375 -7.21875 C 4.160156 -7.96875 4.769531 -8.554688 5.5625 -8.984375 C 6.363281 -9.421875 7.289062 -9.640625 8.34375 -9.640625 C 9.40625 -9.640625 10.332031 -9.425781 11.125 -9 C 11.925781 -8.582031 12.539062 -8 12.96875 -7.25 C 13.394531 -6.5 13.609375 -5.648438 13.609375 -4.703125 C 13.609375 -3.265625 13.128906 -2.078125 12.171875 -1.140625 C 11.210938 -0.203125 9.9375 0.265625 8.34375 0.265625 Z M 8.34375 0.265625 "/></g></g></g><g fill="#244367" fill-opacity="1"><g transform="translate(1415.834125, 95.477513)"><g/></g></g></svg>